<?xml version="1.0" encoding="UTF-8"?>
<svg version="1.1" xmlns="http://www.w3.org/2000/svg" width="1024" height="1024">
<path d="M0 0 C337.92 0 675.84 0 1024 0 C1024 337.92 1024 675.84 1024 1024 C686.08 1024 348.16 1024 0 1024 C0 686.08 0 348.16 0 0 Z " fill="#FDFEFE" transform="translate(0,0)"/>
<path d="M0 0 C4.65067875 -0.04444463 9.30128906 -0.06828227 13.95214844 -0.08349609 C14.71090271 -0.08644684 15.46965698 -0.08939758 16.25140381 -0.09243774 C39.17060665 -0.15292285 39.17060665 -0.15292285 47.95214844 3.04150391 C50.21620379 3.39982451 52.48816645 3.71073162 54.76464844 3.97900391 C60.51133789 4.75085726 65.53790782 6.0503973 70.95214844 8.04150391 C72.69803199 8.59629522 74.44820616 9.1377419 76.20214844 9.66650391 C76.99105469 9.90626953 77.77996094 10.14603516 78.59277344 10.39306641 C80.96541721 11.07783776 80.96541721 11.07783776 83.47949219 11.52978516 C92.83023746 13.46493149 101.53853673 18.72830768 109.97802734 23.04077148 C111.9925574 24.06198824 114.01885453 25.05712099 116.04589844 26.05322266 C128.38656499 32.21904655 139.75087979 40.31466592 150.43261719 48.99462891 C153.8001637 51.73043414 157.21533244 54.40516077 160.62792969 57.08447266 C198.41041629 88.89796138 225.14752076 139.43180122 231.95214844 188.04150391 C231.95214844 190.02150391 231.95214844 192.00150391 231.95214844 194.04150391 C127.34214844 194.04150391 22.73214844 194.04150391 -85.04785156 194.04150391 C-82.25905609 188.46391296 -80.00862988 184.26984553 -76.04785156 179.72900391 C-75.56928711 179.17559326 -75.09072266 178.62218262 -74.59765625 178.05200195 C-63.01032309 164.90049176 -49.51506834 154.74671066 -33.63378906 147.29541016 C-31.03616621 146.09266702 -31.03616621 146.09266702 -28.68457031 144.56494141 C-25.42026718 142.67889959 -22.01612488 141.38742336 -18.48535156 140.10400391 C-17.77499756 139.84385498 -17.06464355 139.58370605 -16.33276367 139.31567383 C-14.8999792 138.79364908 -13.46615362 138.27447206 -12.03125 137.75830078 C-10.32617256 137.14208865 -8.62771359 136.50761745 -6.93066406 135.86962891 C-0.46374918 133.54082299 5.94754324 132.17862198 12.72729492 131.16772461 C16.42428522 130.59465367 19.83806132 129.80425314 23.37402344 128.56884766 C28.0241804 126.9445154 32.67526432 126.03496425 37.51464844 125.16650391 C49.20162921 122.93371849 61.02581735 120.40637743 71.25292969 114.05712891 C72.95214844 113.04150391 72.95214844 113.04150391 75.95214844 112.04150391 C75.95214844 111.38150391 75.95214844 110.72150391 75.95214844 110.04150391 C69.95464594 109.50601261 67.1294344 110.19926876 62.24072266 113.62036133 C54.63119824 118.3456698 45.51850377 119.97460416 36.82714844 121.54150391 C35.16425781 121.8523291 35.16425781 121.8523291 33.46777344 122.16943359 C24.23767457 123.87012619 14.97663295 125.37675847 5.69775391 126.78564453 C4.7092041 126.93710937 3.7206543 127.08857422 2.70214844 127.24462891 C1.83074219 127.37514648 0.95933594 127.50566406 0.06152344 127.64013672 C-2.09387205 127.95112196 -2.09387205 127.95112196 -4.04785156 129.04150391 C-5.32660156 129.16525391 -6.60535156 129.28900391 -7.92285156 129.41650391 C-13.79455527 130.02327774 -19.35006315 131.54451552 -25.04785156 133.04150391 C-27.04329387 133.5418854 -29.04032519 134.03554276 -31.03759766 134.52856445 C-34.37718954 135.35500527 -37.71224844 136.19911126 -41.04785156 137.04150391 C-42.08683594 137.29931641 -43.12582031 137.55712891 -44.19628906 137.82275391 C-49.25903001 139.12743785 -53.89622277 140.72275034 -58.62207031 142.95556641 C-61.44629155 144.21987157 -64.32443292 145.24258764 -67.23535156 146.29150391 C-87.36638092 153.99279304 -115.02327791 171.50172373 -124.30957031 191.79931641 C-126.04785156 194.04150391 -126.04785156 194.04150391 -129.53222656 194.79150391 C-130.95304131 194.89129582 -132.37515663 194.97359146 -133.79785156 195.04150391 C-151.89860063 196.59729307 -167.32403422 204.07912952 -179.80175781 217.31494141 C-188.33644674 227.67531162 -194.2718859 239.91875713 -197.04785156 253.04150391 C-197.37785156 253.04150391 -197.70785156 253.04150391 -198.04785156 253.04150391 C-198.85995811 238.30327395 -195.21516196 222.30131451 -187.98535156 209.41650391 C-185.31744193 204.33350401 -184.30163495 199.77902544 -183.54785156 194.16650391 C-177.15871209 146.73833144 -149.50614994 99.86251828 -111.48535156 70.66650391 C-109.35448476 69.10421601 -107.20840567 67.5624716 -105.04785156 66.04150391 C-104.21664795 65.44378174 -104.21664795 65.44378174 -103.36865234 64.83398438 C-90.11614861 55.34430545 -75.30087482 46.3662066 -59.57910156 41.79541016 C-57.06523262 41.04668067 -54.76082391 40.09371095 -52.36035156 39.04150391 C-47.99973609 37.26521485 -43.55920671 36.06246428 -38.98535156 34.97900391 C-38.04139526 34.75374023 -38.04139526 34.75374023 -37.07836914 34.52392578 C-34.74147997 33.99303469 -32.39696878 33.51561095 -30.04785156 33.04150391 C-28.84314209 32.785625 -27.63843262 32.52974609 -26.3972168 32.26611328 C-15.2980678 30.02234754 -4.53622531 29.56093578 6.76464844 29.66650391 C8.08367661 29.67298447 8.08367661 29.67298447 9.42935181 29.67959595 C22.16679576 29.75296515 34.48574168 30.24297852 46.95214844 33.04150391 C47.78584961 33.21311035 48.61955078 33.3847168 49.47851562 33.56152344 C68.45402329 37.46906725 85.90026469 43.89083566 102.95214844 53.04150391 C104.10972656 53.64478516 105.26730469 54.24806641 106.45996094 54.86962891 C121.13815988 62.82728574 133.97321492 73.48735526 145.95214844 85.04150391 C146.850625 85.87681641 147.74910156 86.71212891 148.67480469 87.57275391 C172.56317228 110.39559719 191.85935761 143.39131305 197.95214844 176.04150391 C197.95214844 178.02150391 197.95214844 180.00150391 197.95214844 182.04150391 C204.22214844 182.04150391 210.49214844 182.04150391 216.95214844 182.04150391 C209.37675578 150.03486098 197.73358136 122.41235047 177.95214844 96.04150391 C177.49340332 95.42049805 177.0346582 94.79949219 176.56201172 94.15966797 C169.32091373 84.39187788 161.14916965 73.83951805 150.95214844 67.04150391 C150.95214844 66.38150391 150.95214844 65.72150391 150.95214844 65.04150391 C150.42621094 64.82236328 149.90027344 64.60322266 149.35839844 64.37744141 C146.73792915 62.92257047 144.56815713 61.13656412 142.28295898 59.20800781 C133.588868 51.88776639 124.23017598 46.1145578 114.39501953 40.46191406 C110.96128287 38.465364 107.57531046 36.3918446 104.18969727 34.31494141 C101.53054964 32.8015629 98.8766845 31.73399695 95.98925781 30.74243164 C93.74439814 29.97002127 91.55776039 29.09531982 89.35839844 28.20166016 C37.15342087 7.28156331 -20.96879864 7.45495344 -73.23876953 28.81982422 C-86.47127364 34.57468695 -99.40516101 41.49510555 -111.04785156 50.04150391 C-111.96074951 50.69820068 -111.96074951 50.69820068 -112.89208984 51.36816406 C-122.17475003 58.05357982 -130.81600758 65.09351661 -139.04785156 73.04150391 C-139.77359375 73.72728516 -140.49933594 74.41306641 -141.24707031 75.11962891 C-146.67332053 80.36464876 -151.37057626 86.12886851 -156.04785156 92.04150391 C-156.86511719 93.05341797 -157.68238281 94.06533203 -158.52441406 95.10791016 C-164.8173685 102.99119036 -170.09761452 111.26115646 -175.04785156 120.04150391 C-175.39589844 120.65251953 -175.74394531 121.26353516 -176.10253906 121.89306641 C-191.25690849 148.66958381 -201.17070295 180.15856324 -202.04785156 211.04150391 C-202.07363281 211.8183252 -202.09941406 212.59514648 -202.12597656 213.39550781 C-202.43217786 223.84271349 -202.22221319 233.85431372 -200.48535156 244.16650391 C-197.38065914 263.13011201 -199.34027857 282.92711956 -200.04785156 302.04150391 C-213.7406816 288.34867387 -215.19048455 253.03822827 -215.21582031 234.43994141 C-215.21914871 233.55980377 -215.22247711 232.67966614 -215.22590637 231.77285767 C-215.23093165 229.92247025 -215.23331607 228.07207392 -215.2331543 226.22167969 C-215.23533001 223.44401466 -215.25350377 220.66675468 -215.27246094 217.88916016 C-215.31940525 203.40082159 -214.16876111 189.50672072 -210.86035156 175.35400391 C-210.64677002 174.43393555 -210.43318848 173.51386719 -210.21313477 172.56591797 C-206.24470466 156.06197538 -200.44791846 140.30482037 -193.04785156 125.04150391 C-192.7376709 124.40051758 -192.42749023 123.75953125 -192.10791016 123.09912109 C-181.9429216 102.42511476 -167.96061193 83.62451041 -152.04785156 67.04150391 C-150.68466797 65.61644531 -150.68466797 65.61644531 -149.29394531 64.16259766 C-124.70411161 39.01310913 -93.92450355 21.76975764 -61.04785156 10.04150391 C-59.943125 9.64060547 -58.83839844 9.23970703 -57.70019531 8.82666016 C-38.9635664 2.5474938 -19.63615204 0.20346876 0 0 Z " fill="#245483" transform="translate(495.0478515625,297.95849609375)"/>
<path d="M0 0 C7.32257371 5.7316574 12.84240565 12.72517629 17 21 C17.58201172 22.14275391 17.58201172 22.14275391 18.17578125 23.30859375 C24.58485576 36.75599736 24.90168314 51.39284635 20.19213867 65.40698242 C14.93077032 79.87709169 5.4764312 90.63314621 -8 98 C-8.73992187 98.41121094 -9.47984375 98.82242188 -10.2421875 99.24609375 C-20.93029413 104.59014706 -36.73234043 106.1341929 -48.4765625 103.4296875 C-50.35773471 102.71769005 -52.18221738 101.86105493 -54 101 C-55.65990622 100.41785279 -57.32689431 99.85554822 -59 99.3125 C-59.763125 99.06113281 -60.52625 98.80976563 -61.3125 98.55078125 C-61.869375 98.36902344 -62.42625 98.18726563 -63 98 C-63 97.34 -63 96.68 -63 96 C-63.7425 95.855625 -64.485 95.71125 -65.25 95.5625 C-68 95 -68 95 -69.9375 94.3125 C-72.03935919 93.79473893 -72.03935919 93.79473893 -73.921875 94.93359375 C-75.86369773 96.53103339 -77.49818706 97.97637069 -79 100 C-78.93528173 101.94154796 -78.86384673 103.88434622 -78.703125 105.8203125 C-79.40197459 110.95133977 -84.44843616 114.52940911 -88 118 C-89.22790594 119.22521759 -90.45438819 120.45186311 -91.6796875 121.6796875 C-93.57527911 123.5791526 -95.47388624 125.4743722 -97.38916016 127.35400391 C-97.9722998 127.92812012 -98.55543945 128.50223633 -99.15625 129.09375 C-99.68025391 129.60615234 -100.20425781 130.11855469 -100.74414062 130.64648438 C-102.11586087 131.99794944 -102.11586087 131.99794944 -103 134 C-125.11 134 -147.22 134 -170 134 C-167.21120453 128.42240906 -164.96077832 124.22834162 -161 119.6875 C-160.52143555 119.13408936 -160.04287109 118.58067871 -159.54980469 118.01049805 C-147.96247153 104.85898785 -134.46721678 94.70520675 -118.5859375 87.25390625 C-115.98831464 86.05116311 -115.98831464 86.05116311 -113.63671875 84.5234375 C-110.37241561 82.63739569 -106.96827331 81.34591945 -103.4375 80.0625 C-102.727146 79.80235107 -102.01679199 79.54220215 -101.28491211 79.27416992 C-99.85212764 78.75214517 -98.41830206 78.23296815 -96.98339844 77.71679688 C-95.27832099 77.10058474 -93.57986203 76.46611354 -91.8828125 75.828125 C-85.41589762 73.49931909 -79.0046052 72.13711807 -72.22485352 71.1262207 C-68.52786321 70.55314977 -65.11408712 69.76274923 -61.578125 68.52734375 C-56.92796804 66.9030115 -52.27688412 65.99346034 -47.4375 65.125 C-35.75051923 62.89221458 -23.92633109 60.36487352 -13.69921875 54.015625 C-12 53 -12 53 -9 52 C-9 51.34 -9 50.68 -9 50 C-14.99750249 49.46450871 -17.82271404 50.15776485 -22.71142578 53.57885742 C-30.3209502 58.30416589 -39.43364466 59.93310025 -48.125 61.5 C-49.78789063 61.8108252 -49.78789063 61.8108252 -51.484375 62.12792969 C-60.71447387 63.82862228 -69.97551549 65.33525456 -79.25439453 66.74414062 C-80.24294434 66.89560547 -81.23149414 67.04707031 -82.25 67.203125 C-83.12140625 67.33364258 -83.9928125 67.46416016 -84.890625 67.59863281 C-87.04602049 67.90961805 -87.04602049 67.90961805 -89 69 C-90.27875 69.12375 -91.5575 69.2475 -92.875 69.375 C-98.74670371 69.98177383 -104.30221159 71.50301161 -110 73 C-111.9954423 73.50038149 -113.99247363 73.99403885 -115.98974609 74.48706055 C-119.32933797 75.31350136 -122.66439688 76.15760736 -126 77 C-127.03898438 77.2578125 -128.07796875 77.515625 -129.1484375 77.78125 C-134.21117845 79.08593394 -138.84837121 80.68124643 -143.57421875 82.9140625 C-146.39843999 84.17836766 -149.27658135 85.20108373 -152.1875 86.25 C-172.31852936 93.95128914 -199.97542635 111.46021983 -209.26171875 131.7578125 C-211 134 -211 134 -214.484375 134.75 C-215.90518974 134.84979192 -217.32730507 134.93208755 -218.75 135 C-236.85074907 136.55578917 -252.27618266 144.03762561 -264.75390625 157.2734375 C-273.28859518 167.63380771 -279.22403434 179.87725323 -282 193 C-282.33 193 -282.66 193 -283 193 C-283.91099641 176.46710222 -278.899042 160.1848304 -271.26171875 145.6796875 C-269.68963599 142.34083681 -269.16640507 139.66091158 -269 136 C-268.01 136 -267.02 136 -266 136 C-264.22490875 133.71545811 -264.22490875 133.71545811 -262.5 130.75 C-258.01201508 123.75862532 -252.76080538 117.95973967 -247 112 C-246.25878906 111.20722656 -245.51757812 110.41445313 -244.75390625 109.59765625 C-208.54165947 71.79074172 -147.76718112 56.12866299 -96.86914062 54.95068359 C-95.24601096 54.94946258 -93.62288504 54.97179478 -92 55 C-92.03480469 53.92363281 -92.06960938 52.84726562 -92.10546875 51.73828125 C-92.4868241 35.08129276 -89.91463195 20.13144986 -78.03759766 7.48339844 C-56.50589392 -14.17483104 -25.18261707 -17.2367803 0 0 Z " fill="#26517F" transform="translate(580,358)"/>
<path d="M0 0 C7.26 0 14.52 0 22 0 C19.48529242 14.80883354 16.75180657 29.54095736 13.7578125 44.25927734 C12.38139867 51.05354689 11.02694947 57.85222068 9.66934204 64.65026855 C8.89878641 68.50787823 8.127085 72.36525862 7.35546875 76.22265625 C6.90816406 78.45917969 6.46085938 80.69570313 6 83 C12.6 82.01 19.2 81.02 26 80 C26.55429687 77.08414063 27.10859375 74.16828125 27.6796875 71.1640625 C28.22238066 68.31101367 28.76523549 65.45799565 29.30810547 62.60498047 C29.68262316 60.63626256 30.05697523 58.66751314 30.43115234 56.69873047 C30.97188492 53.85375615 31.51323141 51.0088992 32.0546875 48.1640625 C32.21935516 47.29697662 32.38402283 46.42989075 32.55368042 45.53652954 C33.66850983 39.68341204 34.83136092 33.8431954 36 28 C42.93 28 49.86 28 57 28 C57.33 30.64 57.66 33.28 58 36 C58.49628906 35.60167969 58.99257813 35.20335937 59.50390625 34.79296875 C68.00169086 28.16566424 75.25999306 25.81796598 86 26 C85.34034961 32.86036401 83.7637236 39.34443923 82 46 C81.16597656 46.01417969 80.33195313 46.02835938 79.47265625 46.04296875 C71.9601604 46.36136777 65.87190107 47.01958188 60 52 C55.12771237 57.53867675 52.44319482 64.11593931 50 71 C51.00675781 70.40832031 52.01351562 69.81664062 53.05078125 69.20703125 C66.21922376 61.7141225 80.55235559 55.73379964 96 57 C96.12246094 55.73285156 96.24492188 54.46570313 96.37109375 53.16015625 C96.96106035 47.85045687 97.97746619 42.6648331 99.0625 37.4375 C99.701875 34.323125 100.34125 31.20875 101 28 C107.93 28 114.86 28 122 28 C122 30.97 122 33.94 122 37 C122.49628906 36.52949219 122.99257813 36.05898438 123.50390625 35.57421875 C132.62489925 27.21475078 138.76389695 26.54178255 151 27 C149.89309248 33.40593286 148.66054831 39.71363856 147 46 C146.16597656 46.01417969 145.33195313 46.02835938 144.47265625 46.04296875 C135.98789296 46.40257498 129.78023489 47.79784003 123.3203125 53.4765625 C121.76107162 55.07953216 121.76107162 55.07953216 121 58 C122.36125 57.938125 122.36125 57.938125 123.75 57.875 C130.52297186 57.875 138.04818699 58.61925657 144 62 C143.67 63.32 143.34 64.64 143 66 C137.13391708 65.30710259 131.32260413 64.42848067 125.5 63.4375 C124.26636719 63.22963867 124.26636719 63.22963867 123.0078125 63.01757812 C121.00495459 62.67988697 119.00244041 62.34015815 117 62 C113.84309008 75.96800367 110.8950625 89.97555791 108 104 C100.74 104 93.48 104 86 104 C87.38208491 94.47971608 89.13528841 85.0981694 91.125 75.6875 C91.40526283 74.34967531 91.68521225 73.01178492 91.96484375 71.67382812 C92.64016997 68.44856323 93.31860077 65.22398629 94 62 C83.18720338 63.610138 73.13523787 65.72511404 63 70 C61.79472656 70.46921875 60.58945312 70.9384375 59.34765625 71.421875 C52.73754991 74.32265872 52.73754991 74.32265872 48.59375 79.953125 C47.79745974 83.31346992 47.34661818 86.56569112 47 90 C46.6408292 92.04451073 46.26701316 94.08653159 45.875 96.125 C45.72804688 96.99382812 45.58109375 97.86265625 45.4296875 98.7578125 C45 101 45 101 44 104 C36.74 104 29.48 104 22 104 C22.4640625 100.3803125 22.4640625 100.3803125 22.9375 96.6875 C23.03281006 95.93170654 23.12812012 95.17591309 23.22631836 94.3972168 C23.60994515 91.4652401 24.06250168 88.81249496 25 86 C23.83984375 86.2165625 23.83984375 86.2165625 22.65625 86.4375 C21.6146875 86.623125 20.573125 86.80875 19.5 87 C18.4790625 87.185625 17.458125 87.37125 16.40625 87.5625 C13 88 13 88 5 88 C4.01 93.28 3.02 98.56 2 104 C-4.6 104 -11.2 104 -18 104 C-18 101.36 -18 98.72 -18 96 C-18.49628906 96.39832031 -18.99257813 96.79664063 -19.50390625 97.20703125 C-20.18324219 97.73683594 -20.86257813 98.26664063 -21.5625 98.8125 C-22.22378906 99.33457031 -22.88507812 99.85664062 -23.56640625 100.39453125 C-29.98257259 104.62734724 -35.24947022 105.55627042 -42.8125 105.5 C-44.1420874 105.49141968 -44.1420874 105.49141968 -45.49853516 105.48266602 C-53.33515484 105.26854678 -58.88567514 103.7173286 -64.78125 98.390625 C-69.88436586 92.9372953 -73.25367048 86.46329523 -74 79 C-68.0405779 79.54176565 -62.15119493 80.39662572 -56.25 81.375 C-55.51724854 81.48884033 -54.78449707 81.60268066 -54.02954102 81.7199707 C-50.783523 82.27536176 -48.23224141 82.85799697 -45.40625 84.5859375 C-42.2158578 86.46081084 -39.92497662 86.33166615 -36.25 86.25 C-35.02539062 86.22421875 -33.80078125 86.1984375 -32.5390625 86.171875 C-28.31577621 85.96677059 -24.187864 85.57763641 -20 85 C-20.33 84.01 -20.66 83.02 -21 82 C-19.85546875 79.984375 -19.85546875 79.984375 -18.1875 77.75 C-13.25489325 70.63148167 -11.96383442 63.5742702 -13 55 C-15.30223275 50.12989225 -18.0977299 47.2361232 -23 45 C-30.23066666 43.99128901 -36.44651635 44.10915929 -42.421875 48.578125 C-46.68593668 52.42000235 -50.58952076 57.29903265 -51.2409668 63.17260742 C-51.29422236 65.58010883 -51.26235418 67.96815022 -51.1875 70.375 C-51.17396484 71.20644531 -51.16042969 72.03789063 -51.14648438 72.89453125 C-51.11139059 74.92997066 -51.05759228 76.96507291 -51 79 C-54.45925102 78.35901851 -57.91722524 77.71139409 -61.375 77.0625 C-62.35984375 76.88009766 -63.3446875 76.69769531 -64.359375 76.50976562 C-65.30039062 76.33251953 -66.24140625 76.15527344 -67.2109375 75.97265625 C-68.51490479 75.72914429 -68.51490479 75.72914429 -69.84521484 75.48071289 C-72 75 -72 75 -74 74 C-74.42985162 60.67459974 -71.5479438 50.05967573 -62.8125 39.75 C-58.38581389 35.07371633 -53.78340253 31.79931464 -48 29 C-47.31679688 28.66097656 -46.63359375 28.32195313 -45.9296875 27.97265625 C-37.40853808 24.45727712 -25.90716182 24.52239999 -17.3125 27.6875 C-13.4018239 29.52743024 -10.75682083 31.69181501 -8 35 C-6.25862341 31.04083247 -5.32214778 27.1892332 -4.4921875 22.94921875 C-4.36184113 22.29041214 -4.23149475 21.63160553 -4.09719849 20.95283508 C-3.6852436 18.86525517 -3.28002451 16.77643438 -2.875 14.6875 C-2.59549732 13.26488641 -2.31555393 11.84235933 -2.03515625 10.41992188 C-1.35084041 6.94772758 -0.67566401 3.47393287 0 0 Z " fill="#A98D7B" transform="translate(586,512)"/>
<path d="M0 0 C4.65067875 -0.04444463 9.30128906 -0.06828227 13.95214844 -0.08349609 C14.71090271 -0.08644684 15.46965698 -0.08939758 16.25140381 -0.09243774 C39.17060665 -0.15292285 39.17060665 -0.15292285 47.95214844 3.04150391 C50.21620379 3.39982451 52.48816645 3.71073162 54.76464844 3.97900391 C60.51133789 4.75085726 65.53790782 6.0503973 70.95214844 8.04150391 C72.69803199 8.59629522 74.44820616 9.1377419 76.20214844 9.66650391 C76.99105469 9.90626953 77.77996094 10.14603516 78.59277344 10.39306641 C80.96541721 11.07783776 80.96541721 11.07783776 83.47949219 11.52978516 C92.83023746 13.46493149 101.53853673 18.72830768 109.97802734 23.04077148 C111.9925574 24.06198824 114.01885453 25.05712099 116.04589844 26.05322266 C128.38656499 32.21904655 139.75087979 40.31466592 150.43261719 48.99462891 C153.8001637 51.73043414 157.21533244 54.40516077 160.62792969 57.08447266 C198.57718094 89.03838002 224.82343311 139.34137419 231.95214844 188.04150391 C231.9847625 189.70785144 231.9943007 191.37537037 231.95214844 193.04150391 C229.57489702 191.70429998 227.3354505 190.37694911 225.27832031 188.57666016 C219.81747558 183.87952978 215.52888686 183.14593199 208.45214844 183.16650391 C207.53433594 183.14587891 206.61652344 183.12525391 205.67089844 183.10400391 C203.43039407 183.05732673 201.19303471 183.03702213 198.95214844 183.04150391 C198.95214844 182.71150391 198.95214844 182.38150391 198.95214844 182.04150391 C204.89214844 182.04150391 210.83214844 182.04150391 216.95214844 182.04150391 C209.37675578 150.03486098 197.73358136 122.41235047 177.95214844 96.04150391 C177.49340332 95.42049805 177.0346582 94.79949219 176.56201172 94.15966797 C169.32091373 84.39187788 161.14916965 73.83951805 150.95214844 67.04150391 C150.95214844 66.38150391 150.95214844 65.72150391 150.95214844 65.04150391 C150.42621094 64.82236328 149.90027344 64.60322266 149.35839844 64.37744141 C146.73792915 62.92257047 144.56815713 61.13656412 142.28295898 59.20800781 C133.588868 51.88776639 124.23017598 46.1145578 114.39501953 40.46191406 C110.96128287 38.465364 107.57531046 36.3918446 104.18969727 34.31494141 C101.53054964 32.8015629 98.8766845 31.73399695 95.98925781 30.74243164 C93.74439814 29.97002127 91.55776039 29.09531982 89.35839844 28.20166016 C37.15342087 7.28156331 -20.96879864 7.45495344 -73.23876953 28.81982422 C-86.47127364 34.57468695 -99.40516101 41.49510555 -111.04785156 50.04150391 C-111.96074951 50.69820068 -111.96074951 50.69820068 -112.89208984 51.36816406 C-122.17475003 58.05357982 -130.81600758 65.09351661 -139.04785156 73.04150391 C-139.77359375 73.72728516 -140.49933594 74.41306641 -141.24707031 75.11962891 C-146.67332053 80.36464876 -151.37057626 86.12886851 -156.04785156 92.04150391 C-156.86511719 93.05341797 -157.68238281 94.06533203 -158.52441406 95.10791016 C-164.8173685 102.99119036 -170.09761452 111.26115646 -175.04785156 120.04150391 C-175.39589844 120.65251953 -175.74394531 121.26353516 -176.10253906 121.89306641 C-191.25690849 148.66958381 -201.17070295 180.15856324 -202.04785156 211.04150391 C-202.07363281 211.8183252 -202.09941406 212.59514648 -202.12597656 213.39550781 C-202.43217786 223.84271349 -202.22221319 233.85431372 -200.48535156 244.16650391 C-197.38065914 263.13011201 -199.34027857 282.92711956 -200.04785156 302.04150391 C-213.7406816 288.34867387 -215.19048455 253.03822827 -215.21582031 234.43994141 C-215.21914871 233.55980377 -215.22247711 232.67966614 -215.22590637 231.77285767 C-215.23093165 229.92247025 -215.23331607 228.07207392 -215.2331543 226.22167969 C-215.23533001 223.44401466 -215.25350377 220.66675468 -215.27246094 217.88916016 C-215.31940525 203.40082159 -214.16876111 189.50672072 -210.86035156 175.35400391 C-210.64677002 174.43393555 -210.43318848 173.51386719 -210.21313477 172.56591797 C-206.24470466 156.06197538 -200.44791846 140.30482037 -193.04785156 125.04150391 C-192.7376709 124.40051758 -192.42749023 123.75953125 -192.10791016 123.09912109 C-181.9429216 102.42511476 -167.96061193 83.62451041 -152.04785156 67.04150391 C-150.68466797 65.61644531 -150.68466797 65.61644531 -149.29394531 64.16259766 C-124.70411161 39.01310913 -93.92450355 21.76975764 -61.04785156 10.04150391 C-59.943125 9.64060547 -58.83839844 9.23970703 -57.70019531 8.82666016 C-38.9635664 2.5474938 -19.63615204 0.20346876 0 0 Z " fill="#4599A1" transform="translate(495.0478515625,297.95849609375)"/>
<path d="M0 0 C0.91136719 -0.01160156 1.82273437 -0.02320313 2.76171875 -0.03515625 C8.44182793 -0.01056703 12.45043747 0.75311177 17.5 3.375 C15.91078475 8.73595277 14.31027062 14.08343973 12.5 19.375 C11.530625 19.045 10.56125 18.715 9.5625 18.375 C4.12176916 16.84100084 -1.17341334 16.38496313 -6.4375 18.625 C-10.90924465 22.41920758 -10.63221489 25.30050423 -11.5 31.375 C-4.9 31.375 1.7 31.375 8.5 31.375 C7.84 36.655 7.18 41.935 6.5 47.375 C-0.76 47.375 -8.02 47.375 -15.5 47.375 C-16.44461087 54.10562869 -16.44461087 54.10562869 -17.38452148 60.83691406 C-17.50384033 61.67963867 -17.62315918 62.52236328 -17.74609375 63.390625 C-17.86654053 64.24946289 -17.9869873 65.10830078 -18.11108398 65.99316406 C-18.4653996 68.16309698 -18.93073221 70.25259781 -19.5 72.375 C-18.73558594 71.98828125 -17.97117187 71.6015625 -17.18359375 71.203125 C-6.87351593 66.19076466 3.16422739 63.26429544 14.5 61.375 C17.47 46.03 17.47 46.03 20.5 30.375 C27.76 30.375 35.02 30.375 42.5 30.375 C41.2451759 40.51011776 39.59432215 50.37937154 37.5 60.375 C44.1 60.375 50.7 60.375 57.5 60.375 C57.9021875 57.405 57.9021875 57.405 58.3125 54.375 C59.11723002 48.74763792 60.03051064 43.15260075 61.0625 37.5625 C61.18923096 36.86318359 61.31596191 36.16386719 61.4465332 35.44335938 C62.37872665 30.49627335 62.37872665 30.49627335 63.5 29.375 C64.9887186 29.28830568 66.481445 29.26796506 67.97265625 29.27734375 C68.87177734 29.28056641 69.77089844 29.28378906 70.69726562 29.28710938 C71.64279297 29.29548828 72.58832031 29.30386719 73.5625 29.3125 C74.9865918 29.31926758 74.9865918 29.31926758 76.43945312 29.32617188 C78.79303065 29.3379989 81.14648477 29.35447975 83.5 29.375 C83.5 32.015 83.5 34.655 83.5 37.375 C84.056875 36.97667969 84.61375 36.57835937 85.1875 36.16796875 C94.95266811 29.38843481 102.41095822 27.15251263 114.5 28.375 C121.25210593 30.05850094 127.69944348 33.10629147 131.61816406 39.0793457 C134.40635275 44.28489664 135.07501838 48.45321157 134.875 54.3125 C134.86210937 55.09866699 134.84921875 55.88483398 134.8359375 56.69482422 C134.69158245 62.13633289 134.05155224 67.13851117 132.5 72.375 C125.44110263 71.66911026 118.48795036 70.59286614 111.5 69.375 C111.54640625 68.35019531 111.5928125 67.32539062 111.640625 66.26953125 C111.67816011 64.90888344 111.71455841 63.54820395 111.75 62.1875 C111.78351563 61.51396484 111.81703125 60.84042969 111.8515625 60.14648438 C111.92270137 56.50061733 111.61952288 54.56026047 109.625 51.46875 C106.1408281 48.03581592 103.52308467 47.47563128 98.6875 47 C93.03903173 47.1914735 88.58823625 49.16445924 84.69921875 53.28125 C82.13454955 56.56206788 80.30241498 59.243024 79.5 63.375 C81.046875 63.2821875 81.046875 63.2821875 82.625 63.1875 C86.73468973 63.38635595 88.98882496 64.31967803 92.5 66.375 C92.5 67.365 92.5 68.355 92.5 69.375 C87.63969208 69.45879841 83.30206689 69.20601637 78.5 68.375 C78.32871582 69.20636475 78.15743164 70.03772949 77.98095703 70.89428711 C77.33665098 74.01988928 76.69172084 77.14536189 76.04638672 80.27075195 C75.7687982 81.61575354 75.49144849 82.96080445 75.21435547 84.3059082 C74.81282477 86.25485414 74.41032378 88.20360009 74.0078125 90.15234375 C73.76691895 91.32015381 73.52602539 92.48796387 73.27783203 93.69116211 C72.38366983 97.92594349 71.43890799 102.14991406 70.5 106.375 C63.24 106.375 55.98 106.375 48.5 106.375 C50.73305712 92.27148136 53.51155219 78.33683918 56.5 64.375 C49.9 64.375 43.3 64.375 36.5 64.375 C35.37442861 70.48449678 34.2843195 76.59768211 33.24609375 82.72265625 C32.92415039 84.61854492 32.92415039 84.61854492 32.59570312 86.55273438 C32.26333673 88.51438648 31.93103177 90.47605068 31.60180664 92.43823242 C31.2778042 94.36686344 30.94951847 96.29477337 30.62109375 98.22265625 C30.4295874 99.35711182 30.23808105 100.49156738 30.04077148 101.66040039 C29.5 104.375 29.5 104.375 28.5 106.375 C21.24 106.375 13.98 106.375 6.5 106.375 C7.69436198 97.21822486 9.25210384 88.24598343 11.17871094 79.21777344 C12.01636247 75.21003049 12.75287465 71.49685672 12.5 67.375 C3.27694761 69.48754273 -5.56216104 72.30451791 -14.5 75.375 C-16.49931892 76.04370644 -18.49908404 76.71108752 -20.5 77.375 C-20.66435547 78.37853516 -20.66435547 78.37853516 -20.83203125 79.40234375 C-22.31854226 88.40600803 -23.90586066 97.38985097 -25.5 106.375 C-32.76 106.375 -40.02 106.375 -47.5 106.375 C-46.375 96.25 -46.375 96.25 -43.5 92.375 C-43.83 92.045 -44.16 91.715 -44.5 91.375 C-44.43227536 82.9697372 -42.54678481 74.62511031 -40.91601562 66.41040039 C-40.49472534 64.28590076 -40.08272551 62.15974392 -39.671875 60.03320312 C-37.64545674 49.66591348 -37.64545674 49.66591348 -36.5 47.375 C-40.79 47.375 -45.08 47.375 -49.5 47.375 C-48.53450463 42.0325923 -47.56472022 36.69860111 -46.5 31.375 C-42.21 31.375 -37.92 31.375 -33.5 31.375 C-33.273125 29.745625 -33.04625 28.11625 -32.8125 26.4375 C-30.91042818 16.27574646 -25.99738718 9.29904595 -17.5 3.375 C-11.6195561 0.1781502 -6.62421982 -0.08432529 0 0 Z " fill="#A28575" transform="translate(365.5,509.625)"/>
<path d="M0 0 C7.32257371 5.7316574 12.84240565 12.72517629 17 21 C17.58201172 22.14275391 17.58201172 22.14275391 18.17578125 23.30859375 C24.58485576 36.75599736 24.90168314 51.39284635 20.19213867 65.40698242 C14.93077032 79.87709169 5.4764312 90.63314621 -8 98 C-8.73992187 98.41121094 -9.47984375 98.82242188 -10.2421875 99.24609375 C-20.93029413 104.59014706 -36.73234043 106.1341929 -48.4765625 103.4296875 C-50.35773471 102.71769005 -52.18221738 101.86105493 -54 101 C-55.65990622 100.41785279 -57.32689431 99.85554822 -59 99.3125 C-59.763125 99.06113281 -60.52625 98.80976563 -61.3125 98.55078125 C-61.869375 98.36902344 -62.42625 98.18726563 -63 98 C-63 97.34 -63 96.68 -63 96 C-63.7425 95.855625 -64.485 95.71125 -65.25 95.5625 C-68 95 -68 95 -69.9375 94.3125 C-72.03935919 93.79473893 -72.03935919 93.79473893 -73.921875 94.93359375 C-75.86369773 96.53103339 -77.49818706 97.97637069 -79 100 C-78.93528173 101.94154796 -78.86384673 103.88434622 -78.703125 105.8203125 C-79.40197459 110.95133977 -84.44843616 114.52940911 -88 118 C-89.22790594 119.22521759 -90.45438819 120.45186311 -91.6796875 121.6796875 C-93.57527911 123.5791526 -95.47388624 125.4743722 -97.38916016 127.35400391 C-97.9722998 127.92812012 -98.55543945 128.50223633 -99.15625 129.09375 C-99.68025391 129.60615234 -100.20425781 130.11855469 -100.74414062 130.64648438 C-102.11586087 131.99794944 -102.11586087 131.99794944 -103 134 C-113.23 134 -123.46 134 -134 134 C-132.15652951 130.31305903 -130.770156 128.54465175 -127.89453125 125.734375 C-127.07533203 124.92613281 -126.25613281 124.11789062 -125.41210938 123.28515625 C-124.55423828 122.44855469 -123.69636719 121.61195313 -122.8125 120.75 C-116.95913857 115.01811494 -111.31393462 109.23631236 -106 103 C-96.83888716 92.37505461 -96.83888716 92.37505461 -92.43359375 91.4765625 C-90.0625 91.625 -90.0625 91.625 -87.859375 91.9296875 C-87.24578125 91.95289063 -86.6321875 91.97609375 -86 92 C-83.71767582 89.79311693 -83.71767582 89.79311693 -82 87 C-77.32800884 83.47005113 -71.99867458 80 -66 80 C-66 80.66 -66 81.32 -66 82 C-65.4225 82.268125 -64.845 82.53625 -64.25 82.8125 C-62 84 -62 84 -60.0625 85.5 C-57.77133624 87.16630091 -55.65357717 88.01262245 -53 89 C-51.99324219 89.50789063 -50.98648438 90.01578125 -49.94921875 90.5390625 C-45.38750213 92.49604191 -41.02517318 92.44151819 -36.125 92.375 C-34.85462891 92.39240234 -34.85462891 92.39240234 -33.55859375 92.41015625 C-22.52341838 92.35945866 -11.77186434 88.09282148 -3.4765625 80.7734375 C1.9248123 75.12083597 5.29640475 69.30425104 8 62 C8.433125 60.88625 8.86625 59.7725 9.3125 58.625 C11.92471273 44.85151471 9.17699249 30.48321562 1.50390625 18.703125 C-5.51843871 10.01360462 -16.94596328 3.0180078 -28.12792969 1.76074219 C-42.11488631 0.71274502 -54.09262598 2.8560486 -65.07421875 12.19140625 C-71.01992078 17.77530085 -74.6879526 23.53589319 -78 31 C-78.36351562 31.74378906 -78.72703125 32.48757813 -79.1015625 33.25390625 C-80.35619433 37.08871573 -80.46358714 40.80071791 -80.625 44.8125 C-80.68300781 45.99489258 -80.68300781 45.99489258 -80.7421875 47.20117188 C-80.83588844 49.1337538 -80.91900779 51.06684376 -81 53 C-80.34 52.67 -79.68 52.34 -79 52 C-77.49994317 51.7706136 -75.99312789 51.58451986 -74.484375 51.421875 C-61.67106513 49.93313554 -48.95859124 48.44500479 -38 41 C-37.34 40.01 -36.68 39.02 -36 38 C-33.03 38.66 -30.06 39.32 -27 40 C-31.22998273 44.93497985 -36.1094336 47.37685715 -42 50 C-42.68658691 50.31412842 -43.37317383 50.62825684 -44.08056641 50.9519043 C-48.05468005 52.37863702 -52.06498475 53.11699031 -56.2109375 53.8828125 C-57.12781342 54.05467072 -58.04468933 54.22652893 -58.98934937 54.40359497 C-69.37642275 56.31150031 -79.81927396 57.83740365 -90.26596069 59.37667847 C-140.16155773 66.77880989 -194.29554574 77.44077932 -226.66259766 120.11523438 C-230.48212585 125.39080818 -233.36725458 131.06026948 -236 137 C-235.01 137.33 -234.02 137.66 -233 138 C-233.83917969 138.16822266 -233.83917969 138.16822266 -234.6953125 138.33984375 C-250.0698422 142.12168144 -262.92108963 153.28002442 -271.3125 166.375 C-276.23023468 174.80966008 -279.97726854 183.43799675 -282 193 C-282.33 193 -282.66 193 -283 193 C-283.91099641 176.46710222 -278.899042 160.1848304 -271.26171875 145.6796875 C-269.68963599 142.34083681 -269.16640507 139.66091158 -269 136 C-268.01 136 -267.02 136 -266 136 C-264.22490875 133.71545811 -264.22490875 133.71545811 -262.5 130.75 C-258.01201508 123.75862532 -252.76080538 117.95973967 -247 112 C-246.25878906 111.20722656 -245.51757812 110.41445313 -244.75390625 109.59765625 C-208.54165947 71.79074172 -147.76718112 56.12866299 -96.86914062 54.95068359 C-95.24601096 54.94946258 -93.62288504 54.97179478 -92 55 C-92.03480469 53.92363281 -92.06960938 52.84726562 -92.10546875 51.73828125 C-92.4868241 35.08129276 -89.91463195 20.13144986 -78.03759766 7.48339844 C-56.50589392 -14.17483104 -25.18261707 -17.2367803 0 0 Z " fill="#CCB09A" transform="translate(580,358)"/>
<path d="M0 0 C15.71227705 -1.94378685 15.71227705 -1.94378685 22.0078125 2.3203125 C25.22154417 4.85102593 28.21959356 7.62488682 31.21728516 10.40576172 C47.94539817 25.36530403 70.94397996 35.07413148 92 42 C92.73105957 42.25418701 93.46211914 42.50837402 94.21533203 42.77026367 C99.37944736 44.55278113 104.53386223 45.92449166 109.875 47.0625 C110.6594751 47.23241455 111.4439502 47.4023291 112.25219727 47.57739258 C160.92968777 58.02727537 211.52159572 51.69774239 256 29 C256.69834961 28.64470215 257.39669922 28.2894043 258.11621094 27.92333984 C266.07792576 23.80306765 273.54209862 19.08906467 280.875 13.9375 C281.96119629 13.17554321 281.96119629 13.17554321 283.06933594 12.39819336 C287.00280338 9.58617293 290.4599567 6.62017489 293.9375 3.25 C300.35802722 -2.17327255 309.12487868 -0.61765657 317 0 C314.41893 4.17263049 311.91217496 7.21657191 308.0625 10.25 C307.08152344 11.0234375 306.10054687 11.796875 305.08984375 12.59375 C304.07019531 13.3878125 303.05054688 14.181875 302 15 C300.57880859 16.16015625 300.57880859 16.16015625 299.12890625 17.34375 C272.91076001 38.34554205 240.95837337 53.61336671 208.1875 60.9375 C207.35476563 61.12489746 206.52203125 61.31229492 205.6640625 61.50537109 C189.27123529 64.84963298 172.48991773 65.41191881 155.8125 65.375 C154.40975327 65.37418427 154.40975327 65.37418427 152.97866821 65.37335205 C137.9684343 65.33339594 123.66391966 64.45298 109 61 C108.07606445 60.79101074 107.15212891 60.58202148 106.20019531 60.36669922 C69.01006542 51.76205045 24.07624106 30.95516708 0 0 Z " fill="#459CA4" transform="translate(346,683)"/>
<path d="M0 0 C7.26 0 14.52 0 22 0 C19.8598544 12.60307963 17.62004011 25.16117757 15.07861328 37.68896484 C13.06204183 47.63666729 11.12036164 57.59826713 9.1875 67.5625 C9.02857269 68.3813266 8.86964539 69.2001532 8.7059021 70.04379272 C7.80303024 74.6956868 6.90107654 79.34775784 6 84 C2.25006521 84.05811773 -1.49975352 84.09363593 -5.25 84.125 C-6.31347656 84.14175781 -7.37695312 84.15851563 -8.47265625 84.17578125 C-10.00986328 84.18544922 -10.00986328 84.18544922 -11.578125 84.1953125 C-12.52075195 84.20578613 -13.46337891 84.21625977 -14.43457031 84.22705078 C-17.09951941 83.99119213 -18.71863092 83.35661659 -21 82 C-20.59007812 81.43152344 -20.18015625 80.86304688 -19.7578125 80.27734375 C-14.12259144 72.20199108 -11.80279889 64.90683917 -13 55 C-15.30223275 50.12989225 -18.0977299 47.2361232 -23 45 C-30.23066666 43.99128901 -36.44651635 44.10915929 -42.421875 48.578125 C-46.68593668 52.42000235 -50.58952076 57.29903265 -51.2409668 63.17260742 C-51.29422236 65.58010883 -51.26235418 67.96815022 -51.1875 70.375 C-51.17396484 71.20644531 -51.16042969 72.03789063 -51.14648438 72.89453125 C-51.11139059 74.92997066 -51.05759228 76.96507291 -51 79 C-54.45925102 78.35901851 -57.91722524 77.71139409 -61.375 77.0625 C-62.35984375 76.88009766 -63.3446875 76.69769531 -64.359375 76.50976562 C-65.30039062 76.33251953 -66.24140625 76.15527344 -67.2109375 75.97265625 C-68.51490479 75.72914429 -68.51490479 75.72914429 -69.84521484 75.48071289 C-72 75 -72 75 -74 74 C-74.42985162 60.67459974 -71.5479438 50.05967573 -62.8125 39.75 C-58.38581389 35.07371633 -53.78340253 31.79931464 -48 29 C-47.31679688 28.66097656 -46.63359375 28.32195313 -45.9296875 27.97265625 C-37.40853808 24.45727712 -25.90716182 24.52239999 -17.3125 27.6875 C-13.4018239 29.52743024 -10.75682083 31.69181501 -8 35 C-6.25862341 31.04083247 -5.32214778 27.1892332 -4.4921875 22.94921875 C-4.36184113 22.29041214 -4.23149475 21.63160553 -4.09719849 20.95283508 C-3.6852436 18.86525517 -3.28002451 16.77643438 -2.875 14.6875 C-2.59549732 13.26488641 -2.31555393 11.84235933 -2.03515625 10.41992188 C-1.35084041 6.94772758 -0.67566401 3.47393287 0 0 Z " fill="#2C3F77" transform="translate(586,512)"/>
<path d="M0 0 C4.455 0.99 4.455 0.99 9 2 C4.77001727 6.93497985 -0.1094336 9.37685715 -6 12 C-7.02988037 12.47119263 -7.02988037 12.47119263 -8.08056641 12.9519043 C-12.05468005 14.37863702 -16.06498475 15.11699031 -20.2109375 15.8828125 C-21.12781342 16.05467072 -22.04468933 16.22652893 -22.98934937 16.40359497 C-33.37642275 18.31150031 -43.81927396 19.83740365 -54.26596069 21.37667847 C-104.16155773 28.77880989 -158.29554574 39.44077932 -190.66259766 82.11523438 C-194.48212585 87.39080818 -197.36725458 93.06026948 -200 99 C-199.01 99.33 -198.02 99.66 -197 100 C-197.83917969 100.16822266 -197.83917969 100.16822266 -198.6953125 100.33984375 C-214.0698422 104.12168144 -226.92108963 115.28002442 -235.3125 128.375 C-240.23023468 136.80966008 -243.97726854 145.43799675 -246 155 C-246.33 155 -246.66 155 -247 155 C-247.91099641 138.46710222 -242.899042 122.1848304 -235.26171875 107.6796875 C-233.68963599 104.34083681 -233.16640507 101.66091158 -233 98 C-232.01 98 -231.02 98 -230 98 C-228.22490875 95.71545811 -228.22490875 95.71545811 -226.5 92.75 C-222.01201508 85.75862532 -216.76080538 79.95973967 -211 74 C-210.25878906 73.20722656 -209.51757812 72.41445313 -208.75390625 71.59765625 C-180.72995329 42.33962096 -140.63201648 29.6616221 -102 22 C-101.1965918 21.84047852 -100.39318359 21.68095703 -99.56542969 21.51660156 C-85.76342856 18.87313582 -71.69307528 17.73958419 -57.72143555 16.35693359 C-56.89967834 16.27439331 -56.07792114 16.19185303 -55.23126221 16.10681152 C-53.66621202 15.94999095 -52.10082801 15.79645836 -50.53509521 15.64660645 C-46.64205236 15.30447225 -46.64205236 15.30447225 -43 14 C-41.49994317 13.7706136 -39.99312789 13.58451986 -38.484375 13.421875 C-25.67106513 11.93313554 -12.95859124 10.44500479 -2 3 C-1.34 2.01 -0.68 1.02 0 0 Z " fill="#49B5B8" transform="translate(544,396)"/>
<path d="M0 0 C3.2277235 2.12736321 4.89407493 3.38617679 6.75 6.8125 C7.28861691 11.91798142 7.18189941 16.8648801 5.75 21.8125 C6.37261719 21.82667969 6.99523437 21.84085938 7.63671875 21.85546875 C18.29744574 22.40560389 28.44346608 25.18372554 38.75 27.8125 C39.08 26.1625 39.41 24.5125 39.75 22.8125 C40.08 22.8125 40.41 22.8125 40.75 22.8125 C40.75 24.7925 40.75 26.7725 40.75 28.8125 C41.82378906 29.00585938 42.89757812 29.19921875 44.00390625 29.3984375 C45.44013733 29.66127718 46.8763334 29.92430824 48.3125 30.1875 C49.01697266 30.31382812 49.72144531 30.44015625 50.44726562 30.5703125 C54.97714697 31.40531367 59.34030133 32.47973956 63.75 33.8125 C63.42 32.8225 63.09 31.8325 62.75 30.8125 C62.00007339 21.87766005 61.73772118 13.99717319 67.75 6.8125 C71.81523933 2.62022195 75.82290832 -0.86226759 81.7734375 -1.5234375 C93.04126214 -1.65476413 93.04126214 -1.65476413 97.75 2.8125 C102.29316605 7.96960741 103.09728161 10.96377333 103.03515625 17.7265625 C102.3345401 25.30857286 99.12677904 31.71627205 94.75 37.8125 C94.75 38.4725 94.75 39.1325 94.75 39.8125 C87.17751698 41.90146083 79.59127604 42.69322303 71.75 41.8125 C70.07574493 40.82525751 68.40953591 39.82428967 66.75 38.8125 C64.04010851 38.2084375 61.42470511 37.71535355 58.6875 37.3125 C52.54564013 36.32478168 46.57540346 35.09221144 40.5546875 33.5078125 C35.99602595 32.37767078 31.3803908 31.58727011 26.75 30.8125 C24.42214097 37.1105726 23.0057493 43.23699325 22.0625 49.875 C21.629375 52.824375 21.19625 55.77375 20.75 58.8125 C13.49 58.8125 6.23 58.8125 -1.25 58.8125 C0.625 42.74107143 0.625 42.74107143 1.8125 38.375 C3.06628804 33.96317118 3.06628804 33.96317118 3.75 25.8125 C-5.655 24.3275 -5.655 24.3275 -15.25 22.8125 C-14.59 21.8225 -13.93 20.8325 -13.25 19.8125 C-17.61200187 17.36552334 -21.27693484 16.30980652 -26.25 15.8125 C-26.00387948 10.7670293 -24.38606425 8.01578753 -21.05078125 4.42578125 C-14.78664492 -1.18612396 -8.02774218 -2.93321349 0 0 Z " fill="#E0D0C4" transform="translate(471.25,557.1875)"/>
<path d="M0 0 C1.953125 0.35807292 3.90625 0.71614583 5.859375 1.07421875 C5.859375 1.73421875 5.859375 2.39421875 5.859375 3.07421875 C-7.81524052 13.25744308 -24.99740483 16.12843726 -41.3359375 19.2890625 C-46.79214395 20.41503529 -52.17466362 21.79307997 -57.5703125 23.17578125 C-60.25716231 23.85190319 -62.92654747 24.46477537 -65.640625 25.01171875 C-76.45265453 27.35674627 -88.87536789 30.71506449 -98.40625 36.43359375 C-100.55875614 37.72509743 -102.68982647 38.88824297 -104.92578125 40.01953125 C-122.54687344 48.96084039 -145.5069779 63.30651866 -153.19042969 82.7277832 C-155.140625 85.07421875 -155.140625 85.07421875 -156.99229431 85.50964355 C-159.476895 85.6554629 -161.91444879 85.63534771 -164.40234375 85.5625 C-165.76103325 85.55188789 -165.76103325 85.55188789 -167.14717102 85.5410614 C-170.04166083 85.51306103 -172.9342195 85.45031316 -175.828125 85.38671875 C-177.78968561 85.36164313 -179.75127654 85.33882868 -181.71289062 85.31835938 C-186.52288005 85.26321591 -191.33142509 85.17690517 -196.140625 85.07421875 C-188.27577027 64.27783226 -163.15637686 48.79070239 -144.140625 39.07421875 C-140.87897427 37.64942914 -137.62901667 36.36776696 -134.265625 35.20703125 C-131.7213198 34.28472062 -129.34581016 33.2660549 -126.89453125 32.1328125 C-122.06912151 29.96173122 -117.16876931 28.43162299 -112.078125 27.01171875 C-111.17215576 26.75495361 -110.26618652 26.49818848 -109.33276367 26.23364258 C-102.30963149 24.29007607 -95.28184122 22.81819107 -88.09765625 21.6171875 C-85.22225287 21.2310019 -85.22225287 21.2310019 -83.140625 20.07421875 C-81.2534375 19.88859375 -81.2534375 19.88859375 -79.328125 19.69921875 C-75.54611607 19.31663802 -71.98227734 18.6037555 -68.29296875 17.69140625 C-60.09979647 15.76312527 -51.81754228 14.51965908 -43.50097656 13.27197266 C-32.71719868 11.64418314 -22.40785059 9.50978659 -12.203125 5.57421875 C-11.14222656 5.17203125 -10.08132813 4.76984375 -8.98828125 4.35546875 C-6.13848079 3.21314279 -6.13848079 3.21314279 -4.02734375 1.3984375 C-2.140625 0.07421875 -2.140625 0.07421875 0 0 Z " fill="#C9AD99" transform="translate(565.140625,406.92578125)"/>
<path d="M0 0 C0.91136719 -0.01160156 1.82273437 -0.02320313 2.76171875 -0.03515625 C8.44182793 -0.01056703 12.45043747 0.75311177 17.5 3.375 C15.91078475 8.73595277 14.31027062 14.08343973 12.5 19.375 C11.530625 19.045 10.56125 18.715 9.5625 18.375 C4.12176916 16.84100084 -1.17341334 16.38496313 -6.4375 18.625 C-10.90924465 22.41920758 -10.63221489 25.30050423 -11.5 31.375 C-4.9 31.375 1.7 31.375 8.5 31.375 C7.84 36.655 7.18 41.935 6.5 47.375 C-0.76 47.375 -8.02 47.375 -15.5 47.375 C-16.40433667 54.0599637 -16.40433667 54.0599637 -17.29443359 60.74682617 C-17.41125488 61.58705322 -17.52807617 62.42728027 -17.6484375 63.29296875 C-17.76364746 64.14656982 -17.87885742 65.0001709 -17.99755859 65.87963867 C-18.90885596 70.40557182 -19.60330707 72.77138959 -23.51171875 75.40234375 C-24.73023987 76.05186675 -25.95591352 76.68810541 -27.1875 77.3125 C-32.57435822 80.19135131 -36.96197644 83.24952404 -41.5 87.375 C-42.16 87.375 -42.82 87.375 -43.5 87.375 C-43.63114908 82.38451673 -43.18262141 77.87562817 -42.22265625 72.98046875 C-42.09185165 72.30703934 -41.96104706 71.63360992 -41.82627869 70.93977356 C-41.55109964 69.52996071 -41.27278642 68.12075625 -40.99145508 66.7121582 C-40.56047051 64.55232945 -40.1398248 62.39067455 -39.72070312 60.22851562 C-37.65125784 49.67751568 -37.65125784 49.67751568 -36.5 47.375 C-40.79 47.375 -45.08 47.375 -49.5 47.375 C-48.53450463 42.0325923 -47.56472022 36.69860111 -46.5 31.375 C-42.21 31.375 -37.92 31.375 -33.5 31.375 C-33.273125 29.745625 -33.04625 28.11625 -32.8125 26.4375 C-30.91042818 16.27574646 -25.99738718 9.29904595 -17.5 3.375 C-11.6195561 0.1781502 -6.62421982 -0.08432529 0 0 Z " fill="#2D3D74" transform="translate(365.5,509.625)"/>
<path d="M0 0 C4.61673211 3.38790043 7.64078839 8.44983512 8.54736328 14.09423828 C8.65880839 16.35662404 8.6475863 18.57620446 8.5703125 20.83984375 C8.55742187 21.62601074 8.54453125 22.41217773 8.53125 23.22216797 C8.38689495 28.66367664 7.74686474 33.66585492 6.1953125 38.90234375 C-0.86358487 38.19645401 -7.81673714 37.12020989 -14.8046875 35.90234375 C-14.75828125 34.87753906 -14.711875 33.85273437 -14.6640625 32.796875 C-14.62652739 31.43622719 -14.59012909 30.0755477 -14.5546875 28.71484375 C-14.52117187 28.04130859 -14.48765625 27.36777344 -14.453125 26.67382812 C-14.38198613 23.02796108 -14.68516462 21.08760422 -16.6796875 17.99609375 C-20.1638594 14.56315967 -22.78160283 14.00297503 -27.6171875 13.52734375 C-32.33282333 13.68719581 -36.02517294 15.08332566 -39.8046875 17.90234375 C-42.0823132 20.40672422 -43.97264328 23.06092485 -45.8046875 25.90234375 C-46.7946875 27.38734375 -46.7946875 27.38734375 -47.8046875 28.90234375 C-50.69120681 28.98601098 -53.32063565 28.9040543 -56.1796875 28.65234375 C-56.94796875 28.59949219 -57.71625 28.54664063 -58.5078125 28.4921875 C-62.05815059 28.228062 -65.36041142 27.83583014 -68.8046875 26.90234375 C-67.79012917 19.26331631 -66.64107004 11.66733887 -65.2421875 4.08984375 C-65.11545654 3.39052734 -64.98872559 2.69121094 -64.8581543 1.97070312 C-63.92596085 -2.9763829 -63.92596085 -2.9763829 -62.8046875 -4.09765625 C-61.3159689 -4.18435057 -59.8232425 -4.20469119 -58.33203125 -4.1953125 C-57.43291016 -4.19208984 -56.53378906 -4.18886719 -55.60742188 -4.18554688 C-54.66189453 -4.17716797 -53.71636719 -4.16878906 -52.7421875 -4.16015625 C-51.79279297 -4.15564453 -50.84339844 -4.15113281 -49.86523438 -4.14648438 C-47.51165685 -4.13465735 -45.15820273 -4.1181765 -42.8046875 -4.09765625 C-42.8046875 -1.45765625 -42.8046875 1.18234375 -42.8046875 3.90234375 C-42.2478125 3.50402344 -41.6909375 3.10570312 -41.1171875 2.6953125 C-28.06161453 -6.36860724 -14.21657969 -8.64688072 0 0 Z " fill="#2E3F77" transform="translate(491.8046875,543.09765625)"/>
<path d="M0 0 C-0.65965039 6.86036401 -2.2362764 13.34443923 -4 20 C-4.83402344 20.01417969 -5.66804687 20.02835938 -6.52734375 20.04296875 C-14.04573514 20.36161764 -20.11989631 21.02452765 -26 26 C-30.02039366 30.48913911 -32.05940702 34.99740479 -33.6875 40.75 C-34.8132706 44.10854896 -35.47261344 45.62180833 -38.375 47.703125 C-41.21367271 49.01206853 -44.02364807 50.04804938 -47 51 C-47.86238281 51.31582031 -48.72476563 51.63164063 -49.61328125 51.95703125 C-52.91704364 53.14119486 -55.46651642 54 -59 54 C-58.48955357 45.72689799 -57.33810387 37.7923102 -55.625 29.6875 C-55.40239502 28.60605713 -55.17979004 27.52461426 -54.95043945 26.41040039 C-54.50845059 24.26329959 -54.0639501 22.11671399 -53.61669922 19.97070312 C-52.78492321 15.96395311 -51.98442412 11.95129332 -51.1875 7.9375 C-50.795625 5.978125 -50.40375 4.01875 -50 2 C-43.07 2 -36.14 2 -29 2 C-28.67 4.64 -28.34 7.28 -28 10 C-27.50371094 9.60167969 -27.00742187 9.20335937 -26.49609375 8.79296875 C-17.99830914 2.16566424 -10.74000694 -0.18203402 0 0 Z " fill="#51C0BC" transform="translate(672,538)"/>
<path d="M0 0 C5.03359633 2.3843351 8.49996787 5.99993573 11 11 C11.86643032 19.05354082 10.46936478 25.7270127 7 33 C6.52626953 34.01900391 6.52626953 34.01900391 6.04296875 35.05859375 C5 36.75 5 36.75 2 39 C-2.11169723 39.40982603 -5.94703362 38.69591971 -10 38 C-11.4971146 37.78062415 -12.99452807 37.56328121 -14.4921875 37.34765625 C-16.03693405 37.1098406 -17.58121355 36.86897048 -19.125 36.625 C-19.87168945 36.51164307 -20.61837891 36.39828613 -21.38769531 36.28149414 C-23.27842819 35.95381646 -25.14362006 35.48589811 -27 35 C-30.52491243 29.71263135 -29.60420268 23.13643348 -29 17 C-26.70612748 9.71900286 -21.52380345 4.83102539 -15.18359375 0.86328125 C-10.41172718 -1.02327065 -5.02442928 -0.50682288 0 0 Z " fill="#FBFBFB" transform="translate(563,556)"/>
<path d="M0 0 C5.9594221 0.54176565 11.84880507 1.39662572 17.75 2.375 C18.8491272 2.5457605 18.8491272 2.5457605 19.97045898 2.7199707 C25.55954178 3.67625824 25.55954178 3.67625824 28.05639648 5.51147461 C32.55944718 7.78858335 37.00458216 7.59293045 41.98828125 7.73046875 C43.57578438 7.79068962 43.57578438 7.79068962 45.19535828 7.85212708 C48.56741842 7.97703433 51.93976659 8.08251499 55.3125 8.1875 C57.60225943 8.26890144 59.89197424 8.35156898 62.18164062 8.43554688 C67.78734883 8.63837946 73.39339419 8.8237951 79 9 C78.01 14.28 77.02 19.56 76 25 C69.4 25 62.8 25 56 25 C56 22.36 56 19.72 56 17 C55.50371094 17.39832031 55.00742187 17.79664063 54.49609375 18.20703125 C53.81675781 18.73683594 53.13742187 19.26664063 52.4375 19.8125 C51.77621094 20.33457031 51.11492188 20.85664062 50.43359375 21.39453125 C44.01742741 25.62734724 38.75052978 26.55627042 31.1875 26.5 C29.8579126 26.49141968 29.8579126 26.49141968 28.50146484 26.48266602 C20.66484516 26.26854678 15.11432486 24.7173286 9.21875 19.390625 C4.11563414 13.9372953 0.74632952 7.46329523 0 0 Z " fill="#2F4077" transform="translate(512,591)"/>
<path d="M0 0 C-1.10690752 6.40593286 -2.33945169 12.71363856 -4 19 C-4.83402344 19.01417969 -5.66804687 19.02835938 -6.52734375 19.04296875 C-14.02116223 19.36057618 -20.05544443 20.16623408 -26 25 C-26.47824219 25.88558594 -26.95648437 26.77117188 -27.44921875 27.68359375 C-30.60231205 30.54696944 -31.69213777 30.31975042 -35.859375 30.26953125 C-38.15783381 30.1433153 -40.45492642 29.98992782 -42.75 29.8125 C-43.92433594 29.74224609 -45.09867188 29.67199219 -46.30859375 29.59960938 C-49.20801663 29.4228153 -52.10375547 29.22212991 -55 29 C-54.30656482 22.75178405 -53.20321908 16.65550996 -51.9375 10.5 C-50.9784375 5.7975 -50.9784375 5.7975 -50 1 C-43.07 1 -36.14 1 -29 1 C-29 3.97 -29 6.94 -29 10 C-28.50371094 9.52949219 -28.00742187 9.05898438 -27.49609375 8.57421875 C-18.37510075 0.21475078 -12.23610305 -0.45821745 0 0 Z " fill="#54C6C3" transform="translate(737,539)"/>
<path d="M0 0 C7.59 0 15.18 0 23 0 C22.443125 1.60875 21.88625 3.2175 21.3125 4.875 C18.11885886 15.15168096 16.42697946 25.79214075 14.5090332 36.36547852 C14.07877743 38.59228431 13.55006866 40.79972535 13 43 C5.74 43 -1.52 43 -9 43 C-7.86070512 34.6106468 -6.29773164 26.39561571 -4.5 18.125 C-4.28641846 17.13878662 -4.07283691 16.15257324 -3.8527832 15.13647461 C-2.72467795 10.01460743 -1.44501245 5.05754357 0 0 Z " fill="#54BDBB" transform="translate(681,573)"/>
<path d="M0 0 C0.37583914 6.82444749 -1.03357397 13.20555035 -2.375 19.875 C-2.59671875 21.00808594 -2.8184375 22.14117188 -3.046875 23.30859375 C-4.27896077 29.56324092 -5.61648961 35.77420324 -7 42 C-14.26 42 -21.52 42 -29 42 C-27.87237225 32.978978 -26.28901183 24.1478558 -24.4375 15.25 C-24.10455933 13.6422168 -24.10455933 13.6422168 -23.76489258 12.00195312 C-22.13013975 4.26027949 -22.13013975 4.26027949 -21 2 C-14.13966592 -0.01701292 -7.09794446 -0.27714317 0 0 Z " fill="#303F77" transform="translate(401,574)"/>
<path d="M0 0 C5.31103139 -0.10742921 10.31656845 0.03523098 15.5625 1 C17.11130859 1.2784375 17.11130859 1.2784375 18.69140625 1.5625 C19.45324219 1.706875 20.21507812 1.85125 21 2 C20.27293095 10.31067537 18.61046563 18.40209186 16.9375 26.5625 C16.65263437 27.96672381 16.36812634 29.37102021 16.08398438 30.77539062 C15.39409768 34.18459748 14.69690643 37.59219149 14 41 C6.74 41 -0.52 41 -8 41 C-5.83385692 27.20508884 -3.06917798 13.62095724 0 0 Z " fill="#2F4077" transform="translate(422,575)"/>
<path d="M0 0 C7.26 0 14.52 0 22 0 C18.64516129 27.35483871 18.64516129 27.35483871 16 30 C14.44051458 30.15686249 12.87457332 30.25076639 11.30859375 30.31640625 C10.36435547 30.35830078 9.42011719 30.40019531 8.44726562 30.44335938 C7.45404297 30.48267578 6.46082031 30.52199219 5.4375 30.5625 C4.44041016 30.60568359 3.44332031 30.64886719 2.41601562 30.69335938 C-0.0558415 30.79980298 -2.5278031 30.90181928 -5 31 C-4.41819039 23.85316342 -3.33406035 16.90456031 -1.9375 9.875 C-1.298125 6.61625 -0.65875 3.3575 0 0 Z " fill="#2D3D75" transform="translate(386,540)"/>
<path d="M0 0 C6.6 1.32 13.2 2.64 20 4 C18.875 15.25 18.875 15.25 18.24609375 19.1328125 C18.1267749 19.87934082 18.00745605 20.62586914 17.88452148 21.39501953 C17.73700439 22.29591309 17.5894873 23.19680664 17.4375 24.125 C16.963125 27.05375 16.48875 29.9825 16 33 C8.74 33 1.48 33 -6 33 C-4.77521986 21.67078371 -2.76463215 11.05852858 0 0 Z " fill="#314279" transform="translate(476,583)"/>
<path d="M0 0 C3.2277235 2.12736321 4.89407493 3.38617679 6.75 6.8125 C7.25292232 11.64338767 7.29198479 16.18654564 5.75 20.8125 C-1.64575526 20.37479204 -8.67267605 19.19437188 -15.890625 17.53125 C-19.33172385 16.7950149 -22.76224596 16.27281272 -26.25 15.8125 C-26.00387948 10.7670293 -24.38606425 8.01578753 -21.05078125 4.42578125 C-14.78664492 -1.18612396 -8.02774218 -2.93321349 0 0 Z " fill="#F9F9F9" transform="translate(471.25,557.1875)"/>
<path d="M0 0 C2.75557662 1.79432896 4.22126443 2.81752885 5.6875 5.75 C6.23214126 9.95151831 5.96470541 12.19558918 4.0625 16 C0.82778895 19.7454549 -1.78610481 21.42152807 -6.74609375 22.06640625 C-11.00064865 22.26238129 -13.58127341 22.17654884 -17.3125 20 C-20.05177325 16.9183176 -21.09068841 14.99769018 -21.8125 10.9375 C-21.10129028 6.40353804 -18.69449548 3.7596657 -15.3125 0.75 C-10.28870972 -2.28228776 -5.32450318 -2.00924648 0 0 Z " fill="#304177" transform="translate(410.3125,507.25)"/>
<path d="M0 0 C1.2288233 2.4576466 0.93638713 3.45540084 0.51171875 6.140625 C0.31739258 7.37619141 0.31739258 7.37619141 0.11914062 8.63671875 C-0.09452148 9.93029297 -0.09452148 9.93029297 -0.3125 11.25 C-0.44333984 12.09691406 -0.57417969 12.94382812 -0.70898438 13.81640625 C-1.46279125 18.49947697 -2.47336741 22.42010223 -4 27 C-11.26 27 -18.52 27 -26 27 C-25.71125 24.6075 -25.4225 22.215 -25.125 19.75 C-25.03879395 19.00331055 -24.95258789 18.25662109 -24.86376953 17.48730469 C-24.41129791 13.93066727 -23.95188154 11.02076904 -22 8 C-20.18408203 7.02685547 -20.18408203 7.02685547 -18.0078125 6.3671875 C-17.22019531 6.11839844 -16.43257812 5.86960937 -15.62109375 5.61328125 C-14.38552734 5.24783203 -14.38552734 5.24783203 -13.125 4.875 C-11.5018104 4.37496529 -9.87938522 3.87244099 -8.2578125 3.3671875 C-7.5373877 3.15175293 -6.81696289 2.93631836 -6.07470703 2.71435547 C-3.93676024 1.97822552 -1.99800979 1.05386436 0 0 Z " fill="#52B4B4" transform="translate(634,589)"/>
<path d="M0 0 C-0.59431174 9.48849439 -2.28161276 18.66093894 -4 28 C-11.26 28 -18.52 28 -26 28 C-24.88311688 17.94805195 -24.88311688 17.94805195 -20 14 C-19.43152344 13.46890625 -18.86304688 12.9378125 -18.27734375 12.390625 C-4.9272677 0 -4.9272677 0 0 0 Z " fill="#2F3F77" transform="translate(344,588)"/>
<path d="M0 0 C13.58893093 -0.4556679 31.95633968 -0.55223701 44.05859375 6.1875 C43.72859375 7.5075 43.39859375 8.8275 43.05859375 10.1875 C37.79959672 9.58181263 32.68903248 8.73551992 27.49609375 7.6875 C16.77810961 5.64755825 5.94005606 5.44860893 -4.94140625 5.1875 C-5.27140625 6.5075 -5.60140625 7.8275 -5.94140625 9.1875 C-5.94140625 8.1975 -5.94140625 7.2075 -5.94140625 6.1875 C-8.67069961 6.66595385 -11.39984276 7.14523823 -14.12890625 7.625 C-14.89783203 7.75970703 -15.66675781 7.89441406 -16.45898438 8.03320312 C-20.29606199 8.70839704 -24.12540193 9.39982777 -27.94140625 10.1875 C-28.27140625 9.1975 -28.60140625 8.2075 -28.94140625 7.1875 C-30.95648983 6.45426204 -30.95648983 6.45426204 -32.94140625 6.1875 C-21.84130593 3.09907373 -11.52373025 0.5482052 0 0 Z " fill="#D5C5B4" transform="translate(685.94140625,567.8125)"/>
<path d="M0 0 C4.455 0.99 4.455 0.99 9 2 C4.77001727 6.93497985 -0.1094336 9.37685715 -6 12 C-6.7321875 12.33773438 -7.464375 12.67546875 -8.21875 13.0234375 C-12.23419868 14.43335628 -16.32102236 15.16490944 -20.5 15.9375 C-21.86451294 16.19418457 -21.86451294 16.19418457 -23.2565918 16.45605469 C-33.12748157 18.27306311 -43.05358661 19.66978058 -53 21 C-51.44844262 17.53181292 -50.54842725 16.22290914 -46.97265625 14.76953125 C-42.19170832 13.69303472 -37.29989758 13.24382497 -32.4375 12.6875 C-21.63686144 11.33730796 -11.17895605 9.23596321 -2 3 C-1.34 2.01 -0.68 1.02 0 0 Z " fill="#40ADB3" transform="translate(544,396)"/>
<path d="M0 0 C11.34109091 -0.49309091 11.34109091 -0.49309091 14.359375 1.765625 C16.55399496 4.75448838 16.58685293 6.49828489 16.37890625 10.09375 C16 12 16 12 14.4375 14.5 C11.14360153 16.52701444 8.79877599 16.35173852 5 16 C4.34 15.67 3.68 15.34 3 15 C3 17.31 3 19.62 3 22 C2.01 22 1.02 22 0 22 C0 14.74 0 7.48 0 0 Z " fill="#364475" transform="translate(644,641)"/>
<path d="M0 0 C0.66 0 1.32 0 2 0 C2 7.59 2 15.18 2 23 C1.01 22.67 0.02 22.34 -1 22 C-1.66 22.33 -2.32 22.66 -3 23 C-7.0130324 23.53507099 -8.53928033 23.33051628 -11.875 20.9375 C-14 18 -14 18 -14.5625 14.4375 C-14 11 -14 11 -12.4375 8.5625 C-9.11598609 6.43332442 -6.87338754 6.57744863 -3 7 C-2.01 7.66 -1.02 8.32 0 9 C0 6.03 0 3.06 0 0 Z " fill="#2E3E74" transform="translate(335,634)"/>
<path d="M0 0 C3.33443684 0.69329875 4.85232439 1.75974142 6.97265625 4.41015625 C7.67975978 7.23857036 7.67975978 9.58174214 6.97265625 12.41015625 C4.85400097 15.05847535 3.350482 16.14823294 0 16.78515625 C-3.39303864 16.98810436 -5.64182018 16.65110848 -8.52734375 14.84765625 C-10.6204599 11.4463425 -10.5788206 9.33942882 -10.02734375 5.41015625 C-7.63405381 0.72329679 -5.30229613 -0.38652252 0 0 Z " fill="#4BBCBD" transform="translate(556.02734375,374.58984375)"/>
<path d="M0 0 C3.38121991 2.44598887 4.76936783 3.89296559 5.625 8 C4.76936783 12.10703441 3.38121991 13.55401113 0 16 C-3.95779649 16.62491523 -6.00863886 16.61006839 -9.4375 14.5 C-11.63828902 10.97873756 -11.80414661 8.04560357 -11 4 C-8.16650967 -0.53358453 -5.10426635 -0.80593679 0 0 Z " fill="#F3F4F5" transform="translate(394,641)"/>
<path d="M0 0 C1.90625 0.41015625 1.90625 0.41015625 4.40625 1.91015625 C6.51761591 5.42909943 6.84862143 8.41122356 5.90625 12.41015625 C3.36392292 15.40112929 1.7487803 16.25218182 -2.09375 16.97265625 C-6.19764613 16.20317573 -7.63334272 14.73894257 -10.09375 11.41015625 C-10.80335213 7.62561157 -10.37176176 5.94301212 -8.59375 2.53515625 C-5.55267495 -0.04975755 -3.89338955 -0.28328767 0 0 Z " fill="#39497A" transform="translate(492.09375,640.58984375)"/>
<path d="M0 0 C2.9375 1.5625 2.9375 1.5625 5 4 C5.625 7.4375 5.625 7.4375 5 11 C2.38431879 14.72536415 0.9396067 15.83515672 -3.5625 16.625 C-7 16 -7 16 -9.4375 13.9375 C-11.38925759 10.26819573 -11.59677999 8.10286241 -11 4 C-8.10445004 -0.51705794 -5.12679803 -0.7195506 0 0 Z " fill="#EBEDF0" transform="translate(683,641)"/>
<path d="M0 0 C0 0.66 0 1.32 0 2 C-2.76452033 3.38226016 -5.0461363 3.09525387 -8.125 3.0625 C-9.22070312 3.05347656 -10.31640625 3.04445313 -11.4453125 3.03515625 C-12.70988281 3.01775391 -12.70988281 3.01775391 -14 3 C-14.33 4.32 -14.66 5.64 -15 7 C-15 6.01 -15 5.02 -15 4 C-17.72929336 4.47845385 -20.45843651 4.95773823 -23.1875 5.4375 C-23.95642578 5.57220703 -24.72535156 5.70691406 -25.51757812 5.84570312 C-29.35465574 6.52089704 -33.18399568 7.21232777 -37 8 C-37.33 7.01 -37.66 6.02 -38 5 C-40.01508358 4.26676204 -40.01508358 4.26676204 -42 4 C-28.54383015 -0.2191798 -14.02734482 -3.85415864 0 0 Z " fill="#C9B5A3" transform="translate(695,570)"/>
<path d="M0 0 C2.875 1.6875 2.875 1.6875 5 4 C5 5.65 5 7.3 5 9 C0.71 9 -3.58 9 -8 9 C-5.59165543 13.16420059 -5.59165543 13.16420059 -2.73828125 13.390625 C-1.53751953 13.32101562 -1.53751953 13.32101562 -0.3125 13.25 C0.49574219 13.21390625 1.30398438 13.1778125 2.13671875 13.140625 C2.75160156 13.09421875 3.36648438 13.0478125 4 13 C3.01 14.485 3.01 14.485 2 16 C-2.00166053 16.38725747 -4.73113921 16.52055827 -8.4375 15 C-10.84720998 11.91557123 -11.43774079 8.87928911 -11 5 C-7.91867946 0.51807921 -5.40810027 -1.0140188 0 0 Z " fill="#53618E" transform="translate(714,641)"/>
<path d="M0 0 C2.4375 1.6875 2.4375 1.6875 4 4 C4 5.65 4 7.3 4 9 C0.04 9 -3.92 9 -8 9 C-7.67 9.99 -7.34 10.98 -7 12 C-3.33694766 12.74926071 -0.57644848 13.2380014 3 12 C2 15 2 15 0 16 C-4.0130324 16.53507099 -5.53928033 16.33051628 -8.875 13.9375 C-11 11 -11 11 -11.5625 7.4375 C-11 4 -11 4 -9.4375 1.5625 C-6.05782196 -0.60396028 -3.94016013 -0.56288002 0 0 Z " fill="#414F80" transform="translate(554,641)"/>
<path d="M0 0 C2.4375 1.6875 2.4375 1.6875 4 4 C4 5.65 4 7.3 4 9 C-0.29 9 -4.58 9 -9 9 C-6.59165543 13.16420059 -6.59165543 13.16420059 -3.73828125 13.390625 C-2.53751953 13.32101562 -2.53751953 13.32101562 -1.3125 13.25 C-0.50425781 13.21390625 0.30398438 13.1778125 1.13671875 13.140625 C1.75160156 13.09421875 2.36648438 13.0478125 3 13 C3 13.66 3 14.32 3 15 C-0.21804148 16.60902074 -3.51947705 16.59842983 -7 16 C-10.2883921 13.28707652 -10.90851499 11.65183071 -11.5 7.4375 C-11 4 -11 4 -9.4375 1.5625 C-6.05782196 -0.60396028 -3.94016013 -0.56288002 0 0 Z " fill="#344377" transform="translate(429,641)"/>
<path d="M0 0 C2.4375 1.6875 2.4375 1.6875 4 4 C4 5.65 4 7.3 4 9 C-0.29 9 -4.58 9 -9 9 C-6.59165543 13.16420059 -6.59165543 13.16420059 -3.73828125 13.390625 C-2.53751953 13.32101562 -2.53751953 13.32101562 -1.3125 13.25 C-0.50425781 13.21390625 0.30398438 13.1778125 1.13671875 13.140625 C1.75160156 13.09421875 2.36648438 13.0478125 3 13 C0.91713595 15.32319452 0.33447554 15.94910155 -2.875 16.4375 C-6.85139809 15.88080427 -8.39423498 15.0656059 -11 12 C-11.66017005 9.19858274 -11.60984064 6.80756825 -11 4 C-8.16250305 -0.53999512 -5.10870514 -0.72981502 0 0 Z " fill="#3A4A7D" transform="translate(619,641)"/>
<path d="M0 0 C0.33 0.66 0.66 1.32 1 2 C2.546875 1.9071875 2.546875 1.9071875 4.125 1.8125 C8.23468973 2.01135595 10.48882496 2.94467803 14 5 C14 5.99 14 6.98 14 8 C7.96305124 8.15265847 2.32673818 7.60750916 -3.625 6.625 C-4.44484375 6.49867188 -5.2646875 6.37234375 -6.109375 6.2421875 C-10.58012805 5.52341691 -14.73728664 4.58644672 -19 3 C-19 2.34 -19 1.68 -19 1 C-12.73 0.67 -6.46 0.34 0 0 Z " fill="#BA9D8B" transform="translate(444,571)"/>
<path d="M0 0 C0.33 0.66 0.66 1.32 1 2 C0.34 2 -0.32 2 -1 2 C-1.33 2.99 -1.66 3.98 -2 5 C-2.66 5 -3.32 5 -4 5 C-10.68187694 8.80214547 -16.9502215 13.26765178 -23 18 C-25 16 -25 16 -25.125 13.375 C-25.08375 12.59125 -25.0425 11.8075 -25 11 C-24.45472656 10.91621094 -23.90945313 10.83242188 -23.34765625 10.74609375 C-20.21189792 9.74953827 -18.06175111 8.03693655 -15.4375 6.0625 C-6.97636666 -0.26325912 -6.97636666 -0.26325912 0 0 Z " fill="#C5B1A4" transform="translate(346,585)"/>
<path d="M0 0 C1.875 1.625 1.875 1.625 3 4 C2.875 7.125 2.875 7.125 2 10 C-1 12 -1 12 -4.0625 11.8125 C-7 11 -7 11 -9 8 C-8.8125 4.9375 -8.8125 4.9375 -8 2 C-4.77856724 -0.14762184 -3.7404533 -0.561068 0 0 Z " fill="#EFF0F2" transform="translate(655,643)"/>
<path d="M0 0 C2.9375 0.75 2.9375 0.75 4.9375 2.75 C5.3125 5.6875 5.3125 5.6875 4.9375 8.75 C2.78660944 11.1398784 1.499805 11.68305893 -1.6875 12.0625 C-4.0625 11.75 -4.0625 11.75 -6.0625 9.75 C-6.36328125 7.875 -6.36328125 7.875 -6.375 5.75 C-6.39175781 5.04875 -6.40851563 4.3475 -6.42578125 3.625 C-6.30589844 3.00625 -6.18601562 2.3875 -6.0625 1.75 C-3.0625 -0.25 -3.0625 -0.25 0 0 Z " fill="#EFF0F2" transform="translate(330.0625,643.25)"/>
<path d="M0 0 C3.38121991 2.44598887 4.76936783 3.89296559 5.625 8 C4.76936783 12.10703441 3.38121991 13.55401113 0 16 C-3.95779649 16.62491523 -6.00863886 16.61006839 -9.4375 14.5 C-11.63828902 10.97873756 -11.80414661 8.04560357 -11 4 C-8.16650967 -0.53358453 -5.10426635 -0.80593679 0 0 Z M-7.875 3.0625 C-9.68060316 6.17214989 -8.79952488 8.61739473 -8 12 C-7.34 12.66 -6.68 13.32 -6 14 C-2.43407381 13.83582968 -2.43407381 13.83582968 1 13 C2.39935013 10.20129973 2.25265405 8.09501208 2 5 C0.93654948 3.01970318 0.93654948 3.01970318 -1 2 C-3.84496772 1.57325484 -5.36352369 1.63933009 -7.875 3.0625 Z " fill="#3D4674" transform="translate(394,641)"/>
<path d="M0 0 C2.9375 0.875 2.9375 0.875 4.9375 3.875 C4.75 6.9375 4.75 6.9375 3.9375 9.875 C0.9375 11.875 0.9375 11.875 -1.625 11.625 C-4.0625 10.875 -4.0625 10.875 -6.0625 8.875 C-6.39552312 5.7445827 -6.53921956 3.69601702 -4.9375 0.9375 C-3.0625 -0.125 -3.0625 -0.125 0 0 Z " fill="#F3F4F6" transform="translate(491.0625,643.125)"/>
<path d="M0 0 C2.9375 1.5625 2.9375 1.5625 5 4 C5.625 7.4375 5.625 7.4375 5 11 C2.38431879 14.72536415 0.9396067 15.83515672 -3.5625 16.625 C-7 16 -7 16 -9.4375 13.9375 C-11.38925759 10.26819573 -11.59677999 8.10286241 -11 4 C-8.10445004 -0.51705794 -5.12679803 -0.7195506 0 0 Z M-8 4 C-8.37650785 7.45132193 -8.60658065 9.92163439 -6.875 13 C-3.98192987 14.54297074 -2.06359725 13.91256088 1 13 C3.33296251 10.17282787 3.33296251 10.17282787 2.75 6.9375 C2.2406756 3.900541 2.2406756 3.900541 0 2 C-3.73296326 1.61713197 -4.77626323 1.85084215 -8 4 Z " fill="#434E78" transform="translate(683,641)"/>
<path d="M0 0 C1.32 0 2.64 0 4 0 C5.155 -0.0825 6.31 -0.165 7.5 -0.25 C11 0 11 0 13.203125 1.625 C15.5243325 4.69303079 15.41523701 6.44954873 15.25 10.25 C15.21390625 11.32765625 15.1778125 12.4053125 15.140625 13.515625 C15.07101562 14.74539063 15.07101562 14.74539063 15 16 C14.01 16 13.02 16 12 16 C11.93941406 15.14535156 11.87882813 14.29070313 11.81640625 13.41015625 C11.73261719 12.30542969 11.64882813 11.20070313 11.5625 10.0625 C11.48128906 8.96035156 11.40007813 7.85820313 11.31640625 6.72265625 C11.29581916 4.08890097 11.29581916 4.08890097 10 3 C7.54190002 2.7499227 7.54190002 2.7499227 5 3 C2.41073669 5.58926331 2.62601957 7.02705279 2.375 10.625 C2.30023438 11.62789062 2.22546875 12.63078125 2.1484375 13.6640625 C2.09945313 14.43492187 2.05046875 15.20578125 2 16 C1.34 16 0.68 16 0 16 C0 10.72 0 5.44 0 0 Z " fill="#485787" transform="translate(503,641)"/>
<path d="M0 0 C0.99 0 1.98 0 3 0 C4.0260734 1.31337396 5.02727325 2.64664105 6 4 C6.66 4 7.32 4 8 4 C9.63676257 2.0399719 9.63676257 2.0399719 11 0 C11.99 0.33 12.98 0.66 14 1 C13.319375 1.721875 12.63875 2.44375 11.9375 3.1875 C9.74932312 5.77420167 9.74932312 5.77420167 10.0625 8.5 C11.08942543 11.23846782 12.39581731 13.55885242 14 16 C10.20411134 15.45773019 8.52788007 13.79872437 6 11 C4.68 12.65 3.36 14.3 2 16 C1.01 15.67 0.02 15.34 -1 15 C0.65 13.02 2.3 11.04 4 9 C2.80100302 5.9168649 1.52299523 2.93720508 0 0 Z " fill="#4B5983" transform="translate(626,641)"/>
<path d="M0 0 C1.21816406 0.03480469 1.21816406 0.03480469 2.4609375 0.0703125 C3.68683594 0.09738281 3.68683594 0.09738281 4.9375 0.125 C5.87722656 0.15980469 5.87722656 0.15980469 6.8359375 0.1953125 C6.8359375 1.1853125 6.8359375 2.1753125 6.8359375 3.1953125 C4.1959375 3.1953125 1.5559375 3.1953125 -1.1640625 3.1953125 C-1.1640625 4.1853125 -1.1640625 5.1753125 -1.1640625 6.1953125 C1.8059375 7.1853125 4.7759375 8.1753125 7.8359375 9.1953125 C7.4609375 12.1328125 7.4609375 12.1328125 6.8359375 15.1953125 C4.43048112 16.39804069 2.88596797 16.29602722 0.2109375 16.2578125 C-1.01496094 16.24427734 -1.01496094 16.24427734 -2.265625 16.23046875 C-2.89210938 16.21886719 -3.51859375 16.20726562 -4.1640625 16.1953125 C-4.4940625 15.2053125 -4.8240625 14.2153125 -5.1640625 13.1953125 C-2.1940625 13.1953125 0.7759375 13.1953125 3.8359375 13.1953125 C4.1659375 12.2053125 4.4959375 11.2153125 4.8359375 10.1953125 C3.7221875 10.0715625 2.6084375 9.9478125 1.4609375 9.8203125 C-2.1640625 9.1953125 -2.1640625 9.1953125 -4.1640625 7.1953125 C-4.4140625 4.6953125 -4.4140625 4.6953125 -4.1640625 2.1953125 C-2.1640625 0.1953125 -2.1640625 0.1953125 0 0 Z " fill="#2C3870" transform="translate(355.1640625,640.8046875)"/>
<path d="M0 0 C0 0.66 0 1.32 0 2 C-7.36914538 4.21074361 -13.57257145 4.2035063 -21 2 C-23.35546875 0.41796875 -23.35546875 0.41796875 -25 -1 C-16.99190044 -3.66936652 -8.09203838 -1.40078562 0 0 Z " fill="#C7AC99" transform="translate(566,595)"/>
<path d="M0 0 C0.66 0.99 1.32 1.98 2 3 C2.33 3.33 2.66 3.66 3 4 C3.66 4 4.32 4 5 4 C3.83014443 7.70454264 2.48353459 11.28794621 1 14.875 C-0.75854587 19.20574729 -1.98678584 23.44053628 -3 28 C-3.33 28 -3.66 28 -4 28 C-4.53203514 18.34454739 -3.05909324 9.17727973 0 0 Z " fill="#3C9298" transform="translate(301,523)"/>
<path d="M0 0 C3 0.25 3 0.25 5 2.25 C5.25 5.25 5.25 5.25 5 8.25 C3 10.25 3 10.25 0.5625 10.5625 C-2 10.25 -2 10.25 -3.8125 9.0625 C-5.40199375 6.6364306 -5.36487512 5.09602594 -5 2.25 C-3 0.25 -3 0.25 0 0 Z " fill="#DCC2AC" transform="translate(572,390.75)"/>
<path d="M0 0 C0.99 0.66 1.98 1.32 3 2 C3 2.66 3 3.32 3 4 C2.37351562 3.90460937 1.74703125 3.80921875 1.1015625 3.7109375 C0.28429687 3.60007812 -0.53296875 3.48921875 -1.375 3.375 C-2.59316406 3.20097656 -2.59316406 3.20097656 -3.8359375 3.0234375 C-4.55007813 3.01570312 -5.26421875 3.00796875 -6 3 C-8.31563087 4.88500271 -8.31563087 4.88500271 -8.25 8 C-8.31563087 11.11499729 -8.31563087 11.11499729 -6 13 C-2.79680216 13.25288404 -0.07215439 12.91026797 3 12 C2 15 2 15 0 16 C-6.13636364 16.56818182 -6.13636364 16.56818182 -9.375 14.4375 C-11.5699479 11.14507816 -12.06944397 8.95830645 -12 5 C-8.62862798 0.04829734 -5.84406486 -0.75756396 0 0 Z " fill="#42527E" transform="translate(573,641)"/>
<path d="M0 0 C1.32 0 2.64 0 4 0 C5.175625 -0.061875 6.35125 -0.12375 7.5625 -0.1875 C11 0 11 0 12.703125 1.09375 C14.63887326 3.93906672 14.2882872 6.29433086 14.1875 9.6875 C14.16042969 10.86699219 14.13335938 12.04648437 14.10546875 13.26171875 C14.07066406 14.16535156 14.03585937 15.06898438 14 16 C13.34 16 12.68 16 12 16 C11.93941406 15.14535156 11.87882813 14.29070313 11.81640625 13.41015625 C11.73261719 12.30542969 11.64882813 11.20070313 11.5625 10.0625 C11.48128906 8.96035156 11.40007813 7.85820313 11.31640625 6.72265625 C11.29581916 4.08890097 11.29581916 4.08890097 10 3 C7.54190002 2.7499227 7.54190002 2.7499227 5 3 C2.41073669 5.58926331 2.62601957 7.02705279 2.375 10.625 C2.30023437 11.62789062 2.22546875 12.63078125 2.1484375 13.6640625 C2.09945312 14.43492187 2.05046875 15.20578125 2 16 C1.34 16 0.68 16 0 16 C0 10.72 0 5.44 0 0 Z " fill="#2D3D73" transform="translate(524,641)"/>
<path d="M0 0 C2.875 0.4375 2.875 0.4375 5.875 2.4375 C5.875 3.0975 5.875 3.7575 5.875 4.4375 C3.85677083 4.11197917 1.83854167 3.78645833 -0.1796875 3.4609375 C-0.82164062 3.45320312 -1.46359375 3.44546875 -2.125 3.4375 C-4.30831689 5.19886355 -4.30831689 5.19886355 -4.3203125 7.3828125 C-4.29710937 8.10210938 -4.27390625 8.82140625 -4.25 9.5625 C-4.188125 11.480625 -4.188125 11.480625 -4.125 13.4375 C-0.6030279 13.51754482 2.49481469 13.47755702 5.875 12.4375 C5.215 13.7575 4.555 15.0775 3.875 16.4375 C-0.4572929 16.8622346 -2.47462488 16.90798413 -6.0625 14.3125 C-8.125 11.4375 -8.125 11.4375 -8.75 8.4375 C-7.69733217 3.38469443 -5.14395236 0.72015333 0 0 Z " fill="#515C88" transform="translate(473.125,640.5625)"/>
<path d="M0 0 C-0.639375 0.28875 -1.27875 0.5775 -1.9375 0.875 C-4.15206079 1.82823451 -4.15206079 1.82823451 -5 4 C-3.68 4.33 -2.36 4.66 -1 5 C-15.59681093 10.92482916 -15.59681093 10.92482916 -23 9 C-22.360625 8.71125 -21.72125 8.4225 -21.0625 8.125 C-18.84793921 7.17176549 -18.84793921 7.17176549 -18 5 C-16.01578741 4.28771856 -14.01032877 3.63484067 -12 3 C-9.38202764 1.92153972 -6.77414076 0.82285127 -4.171875 -0.29296875 C-2 -1 -2 -1 0 0 Z " fill="#BC9D8A" transform="translate(364,576)"/>
<path d="M0 0 C0.99 0 1.98 0 3 0 C4.65 3.63 6.3 7.26 8 11 C9.58971965 8.61542052 10.86741593 6.3695876 12.125 3.8125 C12.47820312 3.09707031 12.83140625 2.38164063 13.1953125 1.64453125 C13.46085937 1.10183594 13.72640625 0.55914063 14 0 C14.66 0 15.32 0 16 0 C15.37183502 3.94949704 14.1354471 7.19892028 12.4375 10.8125 C11.98246094 11.78832031 11.52742188 12.76414062 11.05859375 13.76953125 C10.70925781 14.50558594 10.35992187 15.24164062 10 16 C8.203125 15.90234375 8.203125 15.90234375 6 15 C4.296875 12.12890625 4.296875 12.12890625 2.75 8.5625 C1.96882813 6.80099609 1.96882813 6.80099609 1.171875 5.00390625 C0 2 0 2 0 0 Z " fill="#414D7E" transform="translate(400,641)"/>
<path d="M0 0 C0.33 1.32 0.66 2.64 1 4 C0.40832031 4.25394531 -0.18335938 4.50789062 -0.79296875 4.76953125 C-5.05083126 6.62409779 -9.02387516 8.59022737 -13 11 C-13.66 11 -14.32 11 -15 11 C-15.66 9.68 -16.32 8.36 -17 7 C-15.29807615 6.0097347 -13.58811989 5.03326794 -11.875 4.0625 C-10.92367187 3.51722656 -9.97234375 2.97195313 -8.9921875 2.41015625 C-5.93743568 0.97051473 -3.33865613 0.39132616 0 0 Z " fill="#B29280" transform="translate(657,574)"/>
<path d="M0 0 C0.99 0.66 1.98 1.32 3 2 C3 2.66 3 3.32 3 4 C1.741875 3.773125 0.48375 3.54625 -0.8125 3.3125 C-4.05403969 2.87033264 -4.05403969 2.87033264 -7 4.125 C-8.31890064 6.5979387 -8.35435046 8.23606641 -8 11 C-6.18917496 13.24366663 -6.18917496 13.24366663 -3.625 13.1875 C-1.28121696 13.02008693 0.75372262 12.66556367 3 12 C2 15 2 15 0 16 C-3.79877599 16.35173852 -6.14360153 16.52701444 -9.4375 14.5 C-11.63828902 10.97873756 -11.80414661 8.04560357 -11 4 C-8.14168726 -0.57330038 -5.12855236 -0.55947844 0 0 Z " fill="#404775" transform="translate(377,641)"/>
<path d="M0 0 C6.28260706 -0.23268915 11.88019467 0.59545452 18 2 C17.01 2.99 16.02 3.98 15 5 C18.65079826 6.61064629 22.0507432 7.44894091 26 8 C26 8.33 26 8.66 26 9 C15.25260979 9.68844492 15.25260979 9.68844492 11.3125 7.125 C10.549375 6.42375 9.78625 5.7225 9 5 C9 4.34 9 3.68 9 3 C5.7 3 2.4 3 -1 3 C-0.67 2.01 -0.34 1.02 0 0 Z " fill="#E2D2C2" transform="translate(528,590)"/>
<path d="M0 0 C0.99 0 1.98 0 3 0 C3 7.59 3 15.18 3 23 C2.01 23 1.02 23 0 23 C0 15.41 0 7.82 0 0 Z " fill="#555F86" transform="translate(665,634)"/>
<path d="M0 0 C3.3 0.66 6.6 1.32 10 2 C10.33 2.99 10.66 3.98 11 5 C12.423125 4.9690625 12.423125 4.9690625 13.875 4.9375 C17 5 17 5 19 6 C19 6.66 19 7.32 19 8 C13.93683317 8.15639125 9.49601562 7.62766071 4.5625 6.5 C3.32628906 6.2215625 2.09007812 5.943125 0.81640625 5.65625 C-0.11300781 5.4396875 -1.04242187 5.223125 -2 5 C-1.67 4.360625 -1.34 3.72125 -1 3.0625 C0.07271225 1.23205433 0.07271225 1.23205433 0 0 Z " fill="#CEC0B5" transform="translate(518,587)"/>
<path d="M0 0 C0.66 0 1.32 0 2 0 C2 1.32 2 2.64 2 4 C3.65 4 5.3 4 7 4 C7 4.66 7 5.32 7 6 C5.35 6 3.7 6 2 6 C2.33 9.63 2.66 13.26 3 17 C4.32 17.33 5.64 17.66 7 18 C7 18.66 7 19.32 7 20 C4.625 20.125 4.625 20.125 2 20 C0 18 0 18 -0.1953125 15.1796875 C-0.16050781 13.54386719 -0.16050781 13.54386719 -0.125 11.875 C-0.10695313 10.77929688 -0.08890625 9.68359375 -0.0703125 8.5546875 C-0.03550781 7.29011719 -0.03550781 7.29011719 0 6 C-0.99 6 -1.98 6 -3 6 C-3 5.34 -3 4.68 -3 4 C-2.01 4 -1.02 4 0 4 C0 2.68 0 1.36 0 0 Z " fill="#36477B" transform="translate(581,637)"/>
<path d="M0 0 C0.598125 0.226875 1.19625 0.45375 1.8125 0.6875 C1.1525 1.05875 0.4925 1.43 -0.1875 1.8125 C-2.50711569 3.58567902 -2.50711569 3.58567902 -2.5625 6.75 C-2.47680236 9.80611241 -2.47680236 9.80611241 -0.1875 11.6875 C2.02322977 11.93003813 2.02322977 11.93003813 4.4375 11.8125 C5.25476563 11.79445313 6.07203125 11.77640625 6.9140625 11.7578125 C7.54054688 11.73460937 8.16703125 11.71140625 8.8125 11.6875 C6.72963595 14.01069452 6.14697554 14.63660155 2.9375 15.125 C-1.03889809 14.56830427 -2.58173498 13.7531059 -5.1875 10.6875 C-5.95697395 7.07968345 -5.89644924 3.85726625 -3.9375 0.625 C-2.1875 -0.3125 -2.1875 -0.3125 0 0 Z " fill="#364579" transform="translate(613.1875,642.3125)"/>
<path d="M0 0 C1.9375 1.5 1.9375 1.5 3 3 C0.15247365 4.42376318 -1.91874027 3.51354329 -5 3 C-5.99 3.495 -5.99 3.495 -7 4 C-7.38995102 5.86492402 -7.38995102 5.86492402 -7.5 8 C-7.65625 10.1875 -7.65625 10.1875 -8 12 C-8.99 12.495 -8.99 12.495 -10 13 C-11.54586876 9.90826248 -11.29359521 7.40570448 -11 4 C-8.10582692 -0.51491 -5.12365602 -0.65210168 0 0 Z " fill="#4B5785" transform="translate(332,641)"/>
<path d="M0 0 C2.64 0 5.28 0 8 0 C8 0.99 8 1.98 8 3 C7.360625 3.12375 6.72125 3.2475 6.0625 3.375 C5.381875 3.58125 4.70125 3.7875 4 4 C2.78306124 6.43387753 2.68040104 8.41838846 2.4375 11.125 C2.31181641 12.49011719 2.31181641 12.49011719 2.18359375 13.8828125 C2.12300781 14.58148437 2.06242187 15.28015625 2 16 C1.34 16 0.68 16 0 16 C0 10.72 0 5.44 0 0 Z " fill="#404F81" transform="translate(438,641)"/>
<path d="M0 0 C0.33 1.32 0.66 2.64 1 4 C-0.65 4.33 -2.3 4.66 -4 5 C-2.68 5 -1.36 5 0 5 C-0.33 5.99 -0.66 6.98 -1 8 C-2.43655854 8.08131463 -3.8744483 8.13933559 -5.3125 8.1875 C-6.51326172 8.23970703 -6.51326172 8.23970703 -7.73828125 8.29296875 C-10 8 -10 8 -11.79296875 6.61328125 C-13 5 -13 5 -13 3 C-8.71 3 -4.42 3 0 3 C0 2.01 0 1.02 0 0 Z " fill="#E6E8EC" transform="translate(719,647)"/>
<path d="M0 0 C4.3322929 -0.4247346 6.34962488 -0.47048413 9.9375 2.125 C12 5 12 5 12.5625 8.0625 C11.88943111 11.5774153 10.73706304 12.77613628 8 15 C7.34 14.34 6.68 13.68 6 13 C6.66 13 7.32 13 8 13 C8.47208885 7.78493186 8.47208885 7.78493186 6.8125 3.0625 C4.57501375 1.75087013 2.55687669 1.34552388 0 1 C0 0.67 0 0.34 0 0 Z " fill="#4D5983" transform="translate(387,641)"/>
<path d="M0 0 C0.99 0 1.98 0 3 0 C3 5.28 3 10.56 3 16 C2.01 16 1.02 16 0 16 C0 10.72 0 5.44 0 0 Z " fill="#56608E" transform="translate(343,641)"/>
<path d="M0 0 C0.66 0 1.32 0 2 0 C2 0.66 2 1.32 2 2 C2.66 2 3.32 2 4 2 C4 1.34 4 0.68 4 0 C5.32 0 6.64 0 8 0 C7.67 0.99 7.34 1.98 7 3 C6.33484375 3.27585937 5.6696875 3.55171875 4.984375 3.8359375 C4.32953125 4.22007812 3.6746875 4.60421875 3 5 C2.29626983 7.64787088 2.29626983 7.64787088 2.25 10.625 C2.19328125 11.62789062 2.1365625 12.63078125 2.078125 13.6640625 C2.05234375 14.43492187 2.0265625 15.20578125 2 16 C1.34 16 0.68 16 0 16 C0 10.72 0 5.44 0 0 Z " fill="#3E4C7A" transform="translate(693,641)"/>
<path d="M0 0 C3.66666667 0 7.33333333 0 11 0 C11 0.33 11 0.66 11 1 C9.02 1 7.04 1 5 1 C3.08697693 4.26613695 2.64325339 6.99445248 2.375 10.75 C2.30023438 11.73484375 2.22546875 12.7196875 2.1484375 13.734375 C2.09945313 14.48203125 2.05046875 15.2296875 2 16 C1.34 16 0.68 16 0 16 C0 10.72 0 5.44 0 0 Z " fill="#3B4A7E" transform="translate(503,641)"/>
<path d="M0 0 C3.96 0 7.92 0 12 0 C11 3 11 3 9.3125 4.25 C6.26772958 5.23749311 4.08088616 4.7002014 1 4 C0.67 2.68 0.34 1.36 0 0 Z " fill="#EDEFF1" transform="translate(546,650)"/>
<path d="M0 0 C4.29 0 8.58 0 13 0 C11.02 0.99 11.02 0.99 9 2 C9.99 2.66 10.98 3.32 12 4 C10.56589632 4.24954005 9.12739928 4.47392642 7.6875 4.6875 C6.88699219 4.81511719 6.08648437 4.94273437 5.26171875 5.07421875 C3 5 3 5 1.20703125 3.64453125 C0 2 0 2 0 0 Z " fill="#E4E6EB" transform="translate(420,650)"/>
<path d="M0 0 C0 1.32 0 2.64 0 4 C-1.53125 5.484375 -1.53125 5.484375 -3.5 6.75 C-4.1496875 7.17796875 -4.799375 7.6059375 -5.46875 8.046875 C-5.9740625 8.36140625 -6.479375 8.6759375 -7 9 C-9 7 -9 7 -9.125 4.375 C-9.08375 3.59125 -9.0425 2.8075 -9 2 C-8.401875 1.855625 -7.80375 1.71125 -7.1875 1.5625 C-1.11111111 0 -1.11111111 0 0 0 Z " fill="#D9CABF" transform="translate(330,594)"/>
<path d="M0 0 C1.21236328 0.01353516 1.21236328 0.01353516 2.44921875 0.02734375 C3.37154297 0.04474609 3.37154297 0.04474609 4.3125 0.0625 C4.6425 1.7125 4.9725 3.3625 5.3125 5.0625 C-4.28203303 4.46796697 -4.28203303 4.46796697 -7.6875 1.0625 C-4.80538698 0.10179566 -2.98899956 -0.04331883 0 0 Z " fill="#D7C0AE" transform="translate(548.6875,592.9375)"/>
<path d="M0 0 C0.99 0.33 1.98 0.66 3 1 C-1.95 5.95 -6.9 10.9 -12 16 C-12.33 15.01 -12.66 14.02 -13 13 C-8.71 8.71 -4.42 4.42 0 0 Z " fill="#3F9297" transform="translate(352,356)"/>
<path d="M0 0 C2.625 0.25 2.625 0.25 4.4375 1.625 C5.625 3.25 5.625 3.25 5.625 5.25 C1.995 5.25 -1.635 5.25 -5.375 5.25 C-2.90277778 0.30555556 -2.90277778 0.30555556 0 0 Z " fill="#D5D7DD" transform="translate(615.375,642.75)"/>
<path d="M0 0 C2.625 0.25 2.625 0.25 4.4375 1.625 C5.625 3.25 5.625 3.25 5.625 5.25 C1.995 5.25 -1.635 5.25 -5.375 5.25 C-2.90277778 0.30555556 -2.90277778 0.30555556 0 0 Z " fill="#D0D3DA" transform="translate(550.375,642.75)"/>
<path d="M0 0 C2.625 0.25 2.625 0.25 4.4375 1.625 C5.625 3.25 5.625 3.25 5.625 5.25 C1.995 5.25 -1.635 5.25 -5.375 5.25 C-2.90277778 0.30555556 -2.90277778 0.30555556 0 0 Z " fill="#D5D8DF" transform="translate(425.375,642.75)"/>
<path d="M0 0 C0.928125 0.20625 1.85625 0.4125 2.8125 0.625 C3.1425 1.945 3.4725 3.265 3.8125 4.625 C0.5125 4.625 -2.7875 4.625 -6.1875 4.625 C-6.1875 3.635 -6.1875 2.645 -6.1875 1.625 C-3.1875 -0.375 -3.1875 -0.375 0 0 Z " fill="#E9EAED" transform="translate(712.1875,643.375)"/>
<path d="M0 0 C2.125 0.9375 2.125 0.9375 4 2 C4 2.66 4 3.32 4 4 C1.69 5.32 -0.62 6.64 -3 8 C-3 7.01 -3 6.02 -3 5 C-4.32 5.33 -5.64 5.66 -7 6 C-2.25 1.125 -2.25 1.125 0 0 Z " fill="#CEBAB0" transform="translate(333,589)"/>
<path d="M0 0 C0.66 0 1.32 0 2 0 C2 1.65 2 3.3 2 5 C-2.29 5 -6.58 5 -11 5 C-11.33 5.66 -11.66 6.32 -12 7 C-12 5.02 -12 3.04 -12 1 C-11.67 1.66 -11.34 2.32 -11 3 C-7.37 3 -3.74 3 0 3 C0 2.01 0 1.02 0 0 Z " fill="#3F5081" transform="translate(717,645)"/>
<path d="M0 0 C0.99 0.66 1.98 1.32 3 2 C3 2.66 3 3.32 3 4 C2.39671875 3.89300781 1.7934375 3.78601563 1.171875 3.67578125 C-3.76670386 2.83452788 -3.76670386 2.83452788 -8.4375 4.1875 C-10.03465759 6.0402028 -11.06643103 7.74387499 -12 10 C-12.51818998 6.37267012 -12.14663138 5.19995189 -9.9375 2.1875 C-6.2995687 -0.52159778 -4.44144339 -0.57574266 0 0 Z " fill="#505984" transform="translate(573,641)"/>
<path d="M0 0 C4.75 0.75 4.75 0.75 7 3 C7.57416268 10.23444976 7.57416268 10.23444976 5.5 13 C5.005 13.33 4.51 13.66 4 14 C3.34 13.67 2.68 13.34 2 13 C2.350625 12.46375 2.70125 11.9275 3.0625 11.375 C4.32245845 8.18310525 3.90606087 6.27575855 3 3 C1.56308045 1.14198761 1.56308045 1.14198761 0 0 Z " fill="#344372" transform="translate(653,642)"/>
<path d="M0 0 C0.6875 1.8125 0.6875 1.8125 1 4 C-0.1875 5.625 -0.1875 5.625 -2 7 C-4.26171875 7.29296875 -4.26171875 7.29296875 -6.6875 7.1875 C-7.49574219 7.16042969 -8.30398438 7.13335938 -9.13671875 7.10546875 C-9.75160156 7.07066406 -10.36648438 7.03585937 -11 7 C-11.33 6.01 -11.66 5.02 -12 4 C-9.03 4 -6.06 4 -3 4 C-2.67 3.34 -2.34 2.68 -2 2 C-1.34 2 -0.68 2 0 2 C0 1.34 0 0.68 0 0 Z " fill="#4F5985" transform="translate(362,650)"/>
<path d="M0 0 C0 0.99 0 1.98 0 3 C-2.64 3 -5.28 3 -8 3 C-8.33 5.31 -8.66 7.62 -9 10 C-9.33 10 -9.66 10 -10 10 C-11.31690141 3.65492958 -11.31690141 3.65492958 -10.0625 1.0625 C-6.74491303 -0.64655995 -3.69558797 -0.18175023 0 0 Z " fill="#515E88" transform="translate(494,641)"/>
<path d="M0 0 C2.00084315 3.00126472 2.62108717 4.48597275 3 8 C2.44140625 10.67578125 2.44140625 10.67578125 1.5625 13.3125 C1.27503906 14.19550781 0.98757813 15.07851563 0.69140625 15.98828125 C0.34916016 16.98408203 0.34916016 16.98408203 0 18 C-0.33 18 -0.66 18 -1 18 C-1.09945415 11.88909517 -1.0712828 6.02596573 0 0 Z " fill="#66B5B4" transform="translate(298,533)"/>
<path d="M0 0 C0.66 0 1.32 0 2 0 C2 1.65 2 3.3 2 5 C-2.29 5 -6.58 5 -11 5 C-11 4.34 -11 3.68 -11 3 C-7.37 3 -3.74 3 0 3 C0 2.01 0 1.02 0 0 Z " fill="#38497C" transform="translate(431,645)"/>
<path d="M0 0 C0.99 0 1.98 0 3 0 C2.49477778 4.37859255 -0.17827222 6.81651224 -3 10 C-3.99 9.67 -4.98 9.34 -6 9 C-4.73046875 7.53515625 -3.4609375 6.0703125 -2.19140625 4.60546875 C-0.79128769 2.89287029 -0.79128769 2.89287029 0 0 Z " fill="#3F4B7B" transform="translate(631,647)"/>
<path d="M0 0 C3.96 0.99 3.96 0.99 8 2 C7.67 2.99 7.34 3.98 7 5 C4.03 5 1.06 5 -2 5 C-1.34 3.68 -0.68 2.36 0 1 C0 0.67 0 0.34 0 0 Z " fill="#DCCBBB" transform="translate(518,587)"/>
<path d="M0 0 C3.3 0 6.6 0 10 0 C10 0.99 10 1.98 10 3 C3.25 3.125 3.25 3.125 1 2 C1 4.31 1 6.62 1 9 C0.67 9 0.34 9 0 9 C0 6.03 0 3.06 0 0 Z " fill="#606C8F" transform="translate(646,654)"/>
<path d="M0 0 C1.2375 0.185625 2.475 0.37125 3.75 0.5625 C6.76279577 0.94711223 9.10010827 1.0874594 12 0 C11.34 1.32 10.68 2.64 10 4 C3.375 4.25 3.375 4.25 0 2 C0 1.34 0 0.68 0 0 Z " fill="#3F4F7C" transform="translate(467,653)"/>
<path d="M0 0 C0.33 0 0.66 0 1 0 C1.33 2.31 1.66 4.62 2 7 C4.31 7 6.62 7 9 7 C9 7.99 9 8.98 9 10 C5.625 10.125 5.625 10.125 2 10 C0 8 0 8 -0.1953125 6.0546875 C-0.13020833 4.03645833 -0.06510417 2.01822917 0 0 Z " fill="#505E84" transform="translate(674,647)"/>
<path d="M0 0 C6.75 0.875 6.75 0.875 9 2 C9 3.32 9 4.64 9 6 C6.69 6 4.38 6 2 6 C2.66 5.01 3.32 4.02 4 3 C2.68 2.01 1.36 1.02 0 0 Z " fill="#D8C2AF" transform="translate(454,574)"/>
<path d="M0 0 C0.66 0.33 1.32 0.66 2 1 C-1.16548033 4.88901869 -4.40365256 8.50640535 -8 12 C-8.99 11.67 -9.98 11.34 -11 11 C-7.37 7.37 -3.74 3.74 0 0 Z " fill="#286B8E" transform="translate(377,374)"/>
<path d="M0 0 C3.16198373 0.77966722 6.2841736 0.91454134 9.53125 1.125 C10.79453125 1.20878906 12.0578125 1.29257812 13.359375 1.37890625 C14.32359375 1.43949219 15.2878125 1.50007812 16.28125 1.5625 C16.28125 1.8925 16.28125 2.2225 16.28125 2.5625 C13.38535348 2.58956445 10.48971205 2.60937029 7.59375 2.625 C6.36881836 2.63756836 6.36881836 2.63756836 5.11914062 2.65039062 C1.03625916 2.66692051 -2.73526707 2.59285098 -6.71875 1.5625 C-6.71875 1.2325 -6.71875 0.9025 -6.71875 0.5625 C-2.2142455 -0.56362613 -2.2142455 -0.56362613 0 0 Z " fill="#7ACAC3" transform="translate(481.71875,745.4375)"/>
<path d="M0 0 C1.2375 0.185625 2.475 0.37125 3.75 0.5625 C6.76279577 0.94711223 9.10010827 1.0874594 12 0 C11 3 11 3 9 4 C4.94857881 4.25860135 3.45662331 4.30441554 0 2 C0 1.34 0 0.68 0 0 Z " fill="#374A7E" transform="translate(323,653)"/>
<path d="M0 0 C0.350625 0.474375 0.70125 0.94875 1.0625 1.4375 C3.84163543 3.67873825 6.5144717 3.67117658 10 4 C9.67 4.66 9.34 5.32 9 6 C2.375 6.25 2.375 6.25 -1 4 C-0.67 2.68 -0.34 1.36 0 0 Z " fill="#43507B" transform="translate(385,651)"/>
<path d="M0 0 C0.33 0 0.66 0 1 0 C1 4.62 1 9.24 1 14 C-1.95183101 11.04816899 -2.08663988 8.04488053 -3 4 C-2.01 4.495 -2.01 4.495 -1 5 C-0.67 3.35 -0.34 1.7 0 0 Z " fill="#344E7B" transform="translate(294,586)"/>
<path d="M0 0 C0.66 0 1.32 0 2 0 C0.58832253 5.26170694 -1.74850232 8.72171358 -5 13 C-5.33 12.34 -5.66 11.68 -6 11 C-4.78515625 8.3984375 -4.78515625 8.3984375 -3.0625 5.375 C-2.21365234 3.87066406 -2.21365234 3.87066406 -1.34765625 2.3359375 C-0.90292969 1.56507813 -0.45820313 0.79421875 0 0 Z " fill="#3A7E8E" transform="translate(310,408)"/>
<path d="M0 0 C0.66 0 1.32 0 2 0 C2.36637589 6.35051546 2.36637589 6.35051546 0.625 9.4375 C-1 11 -1 11 -3 11 C-2.690625 10.29875 -2.38125 9.5975 -2.0625 8.875 C-0.96697322 5.91063343 -0.43577008 3.12301892 0 0 Z " fill="#384878" transform="translate(686,645)"/>
<path d="M0 0 C0 4.6091008 -2.67465029 7.57998246 -5.75 10.875 C-6.1625 11.24625 -6.575 11.6175 -7 12 C-7.66 11.67 -8.32 11.34 -9 11 C-6.03 7.37 -3.06 3.74 0 0 Z " fill="#366C92" transform="translate(359,392)"/>
<path d="M0 0 C0.99 0.33 1.98 0.66 3 1 C1.90716423 2.03295436 0.80029421 3.05107835 -0.3125 4.0625 C-0.92738281 4.63097656 -1.54226563 5.19945312 -2.17578125 5.78515625 C-2.77777344 6.18605469 -3.37976563 6.58695313 -4 7 C-4.99 6.67 -5.98 6.34 -7 6 C-5.90716423 4.96704564 -4.80029421 3.94892165 -3.6875 2.9375 C-3.07261719 2.36902344 -2.45773437 1.80054688 -1.82421875 1.21484375 C-0.92123047 0.61349609 -0.92123047 0.61349609 0 0 Z " fill="#2D6A7C" transform="translate(645,683)"/>
<path d="M0 0 C1.65 0.33 3.3 0.66 5 1 C4.67 2.32 4.34 3.64 4 5 C2.02 5 0.04 5 -2 5 C-1.34 3.35 -0.68 1.7 0 0 Z " fill="#E6E6E9" transform="translate(355,650)"/>
<path d="M0 0 C0.99 0 1.98 0 3 0 C6 5.75 6 5.75 6 8 C5.01 8 4.02 8 3 8 C0 2.25 0 2.25 0 0 Z " fill="#495483" transform="translate(400,641)"/>
<path d="M0 0 C4.69023454 0.56606279 9.34500026 1.18537505 14 2 C14 2.33 14 2.66 14 3 C12.22992286 3.08114106 10.45877902 3.13925505 8.6875 3.1875 C7.70136719 3.22230469 6.71523438 3.25710938 5.69921875 3.29296875 C3 3 3 3 1.14453125 1.48828125 C0.76683594 0.99714844 0.38914062 0.50601563 0 0 Z " fill="#EBE8E5" transform="translate(540,596)"/>
<path d="M0 0 C0.33 0 0.66 0 1 0 C1 2.31 1 4.62 1 7 C1.66 7 2.32 7 3 7 C2.34 8.65 1.68 10.3 1 12 C0.34 11.34 -0.32 10.68 -1 10 C-0.9765625 7.6171875 -0.9765625 7.6171875 -0.625 4.875 C-0.51414062 3.96492187 -0.40328125 3.05484375 -0.2890625 2.1171875 C-0.19367188 1.41851563 -0.09828125 0.71984375 0 0 Z " fill="#419C9D" transform="translate(300,526)"/>
<path d="M0 0 C-2 2 -2 2 -3.9453125 2.1953125 C-5.96354167 2.13020833 -7.98177083 2.06510417 -10 2 C-10.33 1.34 -10.66 0.68 -11 0 C-3.57142857 -1.28571429 -3.57142857 -1.28571429 0 0 Z " fill="#455887" transform="translate(718,655)"/>
<path d="M0 0 C3.33333333 0 6.66666667 0 10 0 C7.08596738 1.94268841 4.14191424 3.46395304 1 5 C0.67 3.35 0.34 1.7 0 0 Z " fill="#455382" transform="translate(525,641)"/>
<path d="M0 0 C1.75570312 0.04060547 1.75570312 0.04060547 3.546875 0.08203125 C4.43890625 0.11683594 5.3309375 0.15164063 6.25 0.1875 C6.25 0.5175 6.25 0.8475 6.25 1.1875 C5.46753906 1.24808594 4.68507813 1.30867187 3.87890625 1.37109375 C2.86699219 1.45488281 1.85507812 1.53867187 0.8125 1.625 C-0.19683594 1.70621094 -1.20617187 1.78742187 -2.24609375 1.87109375 C-4.68640779 1.91961468 -4.68640779 1.91961468 -5.75 3.1875 C-7.41617115 3.22813832 -9.08388095 3.230221 -10.75 3.1875 C-7.26391463 -0.10012011 -4.6928191 -0.14078457 0 0 Z " fill="#D5DAE0" transform="translate(556.75,555.8125)"/>
<path d="M0 0 C2.31 0.33 4.62 0.66 7 1 C7 1.66 7 2.32 7 3 C5.35 3.66 3.7 4.32 2 5 C1.34 4.34 0.68 3.68 0 3 C0 2.01 0 1.02 0 0 Z " fill="#D0B5A1" transform="translate(564,407)"/>
<path d="M0 0 C6.4 -0.49230769 6.4 -0.49230769 9.4375 2 C10.2109375 2.99 10.2109375 2.99 11 4 C10.34 4.66 9.68 5.32 9 6 C8.34 5.01 7.68 4.02 7 3 C3.44327821 1.7811879 3.44327821 1.7811879 0 1 C0 0.67 0 0.34 0 0 Z " fill="#505B85" transform="translate(676,641)"/>
<path d="M0 0 C3.3 0 6.6 0 10 0 C6.71536341 2.18975773 3.79303725 2.99806563 0 4 C0 2.68 0 1.36 0 0 Z " fill="#4F5D85" transform="translate(646,641)"/>
<path d="M0 0 C3 0 3 0 4.38671875 1.3125 C5.59114583 2.875 6.79557292 4.4375 8 6 C6.68 6.33 5.36 6.66 4 7 C0 2.25 0 2.25 0 0 Z " fill="#565F88" transform="translate(626,641)"/>
<path d="M0 0 C2.64 0.33 5.28 0.66 8 1 C8 1.66 8 2.32 8 3 C6.02 3.33 4.04 3.66 2 4 C2 3.34 2 2.68 2 2 C1.34 2 0.68 2 0 2 C0 1.34 0 0.68 0 0 Z " fill="#F1E1D2" transform="translate(484,581)"/>
<path d="M0 0 C0.33 0 0.66 0 1 0 C1.38922918 1.28745036 1.76098036 2.58019597 2.125 3.875 C2.33382812 4.59429688 2.54265625 5.31359375 2.7578125 6.0546875 C2.83773437 6.69664062 2.91765625 7.33859375 3 8 C2.34 8.66 1.68 9.32 1 10 C-1.29404844 6.55892734 -1.26293056 5.03160191 -1 1 C-0.67 0.67 -0.34 0.34 0 0 Z " fill="#3D4978" transform="translate(563,646)"/>
<path d="M0 0 C2.625 -0.1875 2.625 -0.1875 5 0 C5.33 0.99 5.66 1.98 6 3 C3.36 3 0.72 3 -2 3 C-1.34 2.01 -0.68 1.02 0 0 Z " fill="#FBFAF9" transform="translate(549,644)"/>
<path d="M0 0 C2.625 -0.1875 2.625 -0.1875 5 0 C5.33 0.99 5.66 1.98 6 3 C3.36 3 0.72 3 -2 3 C-1.34 2.01 -0.68 1.02 0 0 Z " fill="#FDFDFC" transform="translate(424,644)"/>
<path d="M0 0 C6.625 -0.25 6.625 -0.25 10 2 C9.67 2.99 9.34 3.98 9 5 C4.545 3.02 4.545 3.02 0 1 C0 0.67 0 0.34 0 0 Z " fill="#4E5986" transform="translate(612,641)"/>
<path d="M0 0 C6.4 -0.49230769 6.4 -0.49230769 9.4375 2 C10.2109375 2.99 10.2109375 2.99 11 4 C10.01 4.33 9.02 4.66 8 5 C7.608125 4.525625 7.21625 4.05125 6.8125 3.5625 C4.59191626 1.64820367 2.86624291 1.38733012 0 1 C0 0.67 0 0.34 0 0 Z " fill="#586086" transform="translate(387,641)"/>
<path d="M0 0 C5.625 -0.25 5.625 -0.25 9 2 C9 2.66 9 3.32 9 4 C4.545 3.01 4.545 3.01 0 2 C0 1.34 0 0.68 0 0 Z " fill="#3B4A7C" transform="translate(470,641)"/>
<path d="M0 0 C6.625 -0.25 6.625 -0.25 10 2 C9.67 2.99 9.34 3.98 9 5 C4.545 3.02 4.545 3.02 0 1 C0 0.67 0 0.34 0 0 Z " fill="#515E8C" transform="translate(422,641)"/>
<path d="M0 0 C1.65 0 3.3 0 5 0 C5.66 1.65 6.32 3.3 7 5 C6.01 5 5.02 5 4 5 C1.8125 2.5 1.8125 2.5 0 0 Z " fill="#4DA3A8" transform="translate(346,683)"/>
<path d="M0 0 C2.6875 0.3125 2.6875 0.3125 5 1 C5 1.66 5 2.32 5 3 C2.36 3 -0.28 3 -3 3 C-1.8125 1.4375 -1.8125 1.4375 0 0 Z " fill="#F7F7F7" transform="translate(615,644)"/>
<path d="M0 0 C6.625 -0.25 6.625 -0.25 10 2 C9.67 2.99 9.34 3.98 9 5 C8.443125 4.525625 7.88625 4.05125 7.3125 3.5625 C4.81653926 1.87604004 2.9553763 1.41046893 0 1 C0 0.67 0 0.34 0 0 Z " fill="#545B8A" transform="translate(547,641)"/>
<path d="M0 0 C1.32 0.33 2.64 0.66 4 1 C2.35 2.98 0.7 4.96 -1 7 C-1.625 5.1875 -1.625 5.1875 -2 3 C-1.34 2.01 -0.68 1.02 0 0 Z " fill="#2D4475" transform="translate(375,477)"/>
<path d="M0 0 C0.66 0.33 1.32 0.66 2 1 C0.75023244 4.65316671 0.32901247 5.78065836 -3 8 C-1.125 1.125 -1.125 1.125 0 0 Z " fill="#357A8A" transform="translate(330,396)"/>
<path d="M0 0 C0 0.66 0 1.32 0 2 C-3.21451269 3.60725635 -6.43612536 3.05748185 -10 3 C-6.41600853 0.61067235 -4.26804999 0 0 0 Z " fill="#435687" transform="translate(432,654)"/>
<path d="M0 0 C0.928125 0.20625 1.85625 0.4125 2.8125 0.625 C2.8125 1.615 2.8125 2.605 2.8125 3.625 C-1.6425 2.635 -1.6425 2.635 -6.1875 1.625 C-3.1875 -0.375 -3.1875 -0.375 0 0 Z " fill="#434D7D" transform="translate(359.1875,648.375)"/>
<path d="M0 0 C0.66 0 1.32 0 2 0 C1.50168276 3.68754757 0.89932357 5.60490662 -2 8 C-1.125 1.125 -1.125 1.125 0 0 Z " fill="#3A4475" transform="translate(414,641)"/>
<path d="M0 0 C2.97 0 5.94 0 9 0 C9 0.99 9 1.98 9 3 C4.545 2.01 4.545 2.01 0 1 C0 0.67 0 0.34 0 0 Z " fill="#4B5083" transform="translate(353,641)"/>
<path d="M0 0 C1.32 1.32 2.64 2.64 4 4 C3.67 4.99 3.34 5.98 3 7 C1.35 5.02 -0.3 3.04 -2 1 C-1.34 0.67 -0.68 0.34 0 0 Z " fill="#286C8B" transform="translate(587,362)"/>
<path d="M0 0 C-6.625 4 -6.625 4 -10 4 C-10 3.34 -10 2.68 -10 2 C-3.375 -1.125 -3.375 -1.125 0 0 Z " fill="#46929D" transform="translate(599,716)"/>
<path d="M0 0 C0.99 0 1.98 0 3 0 C2 3 2 3 0 4 C-2.3329866 4.04022391 -4.66706666 4.04320247 -7 4 C-7 3.67 -7 3.34 -7 3 C-5.02 3 -3.04 3 -1 3 C-0.67 2.01 -0.34 1.02 0 0 Z " fill="#4C577E" transform="translate(377,653)"/>
</svg>
